<?xml version="1.0" encoding="UTF-8"?>
<svg id="Calque_2" data-name="Calque 2" xmlns="http://www.w3.org/2000/svg" viewBox="0 0 481.09 336.92">
  <defs>
    <style>
      .cls-1, .cls-2, .cls-3 {
        fill: #7b6a58;
      }

      .cls-4 {
        fill: #3aaa35;
      }

      .cls-2 {
        opacity: .5;
      }

      .cls-5, .cls-3 {
        opacity: .8;
      }

      .cls-6 {
        fill: #866135;
      }

      .cls-7 {
        fill: #8cbb9e;
      }

      .cls-8 {
        fill: none;
        stroke: #7b6a58;
        stroke-linecap: round;
        stroke-linejoin: round;
        stroke-width: .5px;
      }

      .cls-9 {
        fill: #a48a7b;
      }

      .cls-10 {
        fill: #008d36;
      }

      .cls-11 {
        fill: #cbbba0;
      }

      .cls-12 {
        fill: #063;
      }
    </style>
  </defs>
  <g id="Naboo">
    <g id="VLakeRetreat">
      <path class="cls-11" d="m5.17,332.96H0v3.97h134.43l64.91-1.98,121.04-3.97,64.06-3.4,58.11-2.27,13.04-1.98v-20.69l-49.32-3.4-27.78,3.69-3.97-45.35-3.12-166.96v-8.22c0-2.27-3.69-5.95-3.69-5.95l.28-17.29,2.55-4.96-2.72-8.57c-7.72,3.88-46.09-18.86-41.22-28.42l.11-7.8c.21-.67-2.74-4.89-3.08-8.82-.28-3.05-.89,7.33-2.23,8.33s-.57,8.29-.57,8.29c4.15,15.85-32.63,20.79-44.4,27.5l-1.56,9.5,3.69,6.24-.99,14.6-4.11,1.28-.99,9.21-5.24,7.37,1.42,4.96,4.82,2.98s.71,8.22-2.55,10.35l-9.07.14-2.5,4.06-1.89-4.2-4.68,5.24s-17.43-15.45-28.35-15.45c0,0,.28-4.82-.14-6.09-.43-1.28-9.5-7.94-15.31-8.08l-.71-12.76-.71,12.76s-9.92.71-16.87,7.8l-.14,5.24s-26.36,6.38-30.76,24.66l-1.46,1.37.38,3.78s4.2.8,3.35,25.04l-3.26,2.83s3.12-.28,3.4,5.39c.28,5.67,0,8.79,0,8.79l-2.55,6.8-.28,4.96-2.55,1.13,1.28,13.89s-7.51,6.52-22.11,8.5l.28-26.79s-7.94-19.84-13.75-22.11c-5.81-2.27-12.47,23.1-12.47,23.1l-.85,35.01-1.98,5.1,2.41,6.8-.28,10.06-.14,2.27-10.2.14-2.41,8.79.43,8.93s-9.21,5.1-11.76.85c-2.55-4.25-30.19,26.93-30.19,26.93l-.28-5.81-10.06-.43-1.98,12.61s-17.15,3.97-21.12,10.06c0,0-.57-1.7-2.69-1.56-2.13.14-1.84-10.63-1.84-10.63l-3.83-1.28-.43,11.62-4.25,5.39-.14,7.23-1.42,1.13v18.14l-1.84.43Z"/>
      <path class="cls-2" d="m278.5,60.83s12.47-11.27,51.13-8.11c18.59,1.52,38.3,6.84,38.3,6.84l2.55-4.96-.99-3.12-7.95-4.75s-3.11-4.59-15.58-2.99-30.41-8.49-61.97,1.52c0,0-1.31-5.48-8.51,5.17l-.68,4.16,3.69,6.24Z"/>
      <path class="cls-7" d="m312.9,26.67l-2.93-4.16s5.1-7.65,17.48-4.63,10.29,6.28,10.29,6.28l-3.01,3.92-21.83-1.42Z"/>
      <polygon class="cls-2" points="309.97 22.51 337.85 23.35 334.72 28.09 312.9 26.67 309.97 22.51"/>
      <path class="cls-7" d="m275.5,50.43s48.12-13.56,94,1.04c0,0,2.32-14.47-31.16-24.53-29.6-8.89-47.72,3.78-48.69,4.59,0,0-20.03,11.85-14.15,18.9Z"/>
      <g>
        <path class="cls-3" d="m309.12,71.6c.57-.14,9.64,0,9.64,0,0,0,2.41-18-4.11-17.01s-5.53,17.01-5.53,17.01Z"/>
        <path class="cls-3" d="m353.63,73.17c-.56-.17-9.63-.41-9.63-.41,0,0-1.64-18.09,4.84-16.82s4.79,17.23,4.79,17.23Z"/>
        <path class="cls-3" d="m301.04,72.17s2.55-16.87-3.47-15.17c-6.02,1.7-4.89,15.17-4.89,15.17h8.36Z"/>
        <path class="cls-3" d="m287.86,73.17s2-16.87-2.72-15.17c-4.71,1.7-3.83,15.17-3.83,15.17h6.54Z"/>
        <path class="cls-3" d="m326.42,71.36c-.24-.86-2.48-19.07,4.65-16.84,7.13,2.23,5.83,17.35,5.83,17.35l-10.48-.51Z"/>
        <path class="cls-3" d="m358.46,74.15s-2-16.87,2.72-15.17,3.83,15.17,3.83,15.17h-6.54Z"/>
      </g>
      <path class="cls-2" d="m273.4,101.22s29.46-5.79,48.11-5.23c18.65.56,43.64,5.01,43.64,5.01l6.39.92-.15-8.01.89-2.49s-21.96-6.01-34.44-4.41-30.41-8.49-61.97,1.52c0,0-1.52-5.9-8.72,4.75l1.42,4.96,4.82,2.98Z"/>
      <g>
        <path class="cls-3" d="m298.68,109.82s.17-5.48-1.11-7.96c-1.1-2.13-3.31-2.81-4.97-.35s-1.66,8.31-1.66,8.31h7.75Z"/>
        <path class="cls-3" d="m307.42,109.3s-.33-10.91,5.48-10.68c4.36.18,3.31,11.2,3.31,11.2l-8.79-.52Z"/>
        <path class="cls-3" d="m334.8,109.96s.33-10.91-5.48-10.68c-4.36.18-3.31,11.2-3.31,11.2l8.79-.52Z"/>
        <path class="cls-3" d="m283.43,109.32s.43-6.42-1.02-7.05-4.12.2-4.03,2.33.22,5.44.22,5.44l4.83-.71Z"/>
        <path class="cls-3" d="m345.39,110.88s.5-5.46,2.07-7.77c1.35-1.98,3.63-2.39,4.98.26s.64,8.46.64,8.46l-7.69-.95Z"/>
        <path class="cls-3" d="m360.58,112.24s.35-6.43,1.88-6.87,4.06.7,3.72,2.8-.89,5.37-.89,5.37l-4.71-1.3Z"/>
      </g>
      <path class="cls-7" d="m272.34,91.48c9.86-1.7,60.19-9.51,96,1.22,4.81,1.44,7.69-4.98,3.29-7.33-.1-.05-.2-.1-.3-.16-10.09-5.21-50.5-18.34-96.19-6.16-.32.09-.64.21-.93.37-2.15,1.16-10.88,6.31-5.42,11.08.96.84,2.28,1.2,3.56.98Z"/>
      <polygon class="cls-3" points="297.57 123.43 300.94 267.52 375.22 266.69 373.67 216.03 371.91 131.37 297.57 123.43"/>
      <polygon class="cls-1" points="267.01 155.37 272.79 155.37 272.79 145.92 265.98 145.92 265.98 155.37 267.01 155.37"/>
      <path class="cls-3" d="m207.39,148.73s.15-5.51-.77-8.14c-3.45-9.88-5.29-3.22-6.11-.24s-.88,8.39-.88,8.39h7.75Z"/>
      <path class="cls-3" d="m208.32,176.47s.18-6.59-1.04-9.09c-2.86-5.86-3.85-2.3-5.51.16s-1.2,8.94-1.2,8.94h7.75Z"/>
      <path class="cls-3" d="m190.61,96.11v4.51h33.9v-5.34l-33.9.83Z"/>
      <g class="cls-5">
        <path class="cls-1" d="m158.74,157.42s83.48-10.06,95.95-1.7c0,0,3.54,1.42,3.54,2.41s3.26,6.38-3.83,5.1-51.02-2.14-59.1-2.13c-27.26.05-32.97,7.94-32.97,7.94.18-7.09-.07-11.21-3.59-11.62Z"/>
        <path class="cls-1" d="m157.02,125.93s85.11-8.65,97.58-.28v8.41c-7-1.68-51.92-2.79-60-2.79-9.5,0-17.72,4.24-17.72,4.24-4.62-4.73-17.73-8.27-19.86-9.57Z"/>
        <polygon class="cls-1" points="213.73 130.14 213.73 155.37 215.57 154.37 215.57 128.76 213.73 130.14"/>
        <polygon class="cls-1" points="179.43 131.84 179.43 161.03 176.46 159.33 176.46 128.76 179.43 131.84"/>
      </g>
      <path class="cls-7" d="m189.76,96.09s-2.69-10.19,17.57-10.98c20.27-.79,17.72,10.98,17.72,10.98h-35.29Z"/>
      <path class="cls-7" d="m157.39,126.06s9.05-22.84,33.66-27.23c13.61-2.43,25.44-1.65,35.47.42,9.11,1.88,31.93,18.41,32.64,25.55l-101.76,1.26Z"/>
      <polygon class="cls-1" points="282.81 154.37 288.58 154.37 288.58 144.92 281.78 144.92 281.78 154.37 282.81 154.37"/>
      <path class="cls-7" d="m155.92,183.5c.48,1.48,25.68,1,26.01,0-.76-11.96-13.69-23.91-14.13-24.53-.51.61-6.15,10.19-11.88,24.53Z"/>
      <path class="cls-9" d="m237.26,130.77c20.69-.38,41.39-.76,62.08-1.13l79.65,12.19-12.59-24.6-76.14-11.11-32.88,4.68-20.13,19.98Z"/>
      <polygon class="cls-11" points="254.6 168.46 254.6 147.57 259.16 148.14 258.98 168.46 254.6 168.46"/>
      <polygon class="cls-3" points="109.63 228.07 107.22 221.27 109.2 216.17 112.25 212.34 285.18 215.18 287.34 282.36 116.88 334.51 117.45 221.32 109.63 228.07"/>
      <path class="cls-9" d="m112.25,212.34c1.98-.28,68.88-31.37,68.88-31.37h70.3l33.74,34.2-172.93-2.83Z"/>
      <path class="cls-7" d="m109.77,178.89c.51,1.58,27.36,1.07,27.71,0-.81-12.74-14.58-25.48-15.05-26.13-.54.65-6.55,10.85-12.66,26.13Z"/>
      <polygon class="cls-11" points="121.42 311.46 243.64 252.69 377.1 252.69 377.1 328.1 246.7 333.43 121.42 336.92 121.42 311.46"/>
      <polygon class="cls-9" points="96.59 249.33 113.01 248.86 113.01 240.59 99 240.55 96.59 249.33"/>
      <polygon class="cls-11" points="109.41 235.94 108.92 251.67 116.93 248.27 113.95 237.61 109.41 235.94"/>
      <line class="cls-8" x1="109.06" y1="252.69" x2="117.46" y2="248.86"/>
      <line class="cls-8" x1="109.24" y1="269.48" x2="117.64" y2="265.65"/>
      <polygon class="cls-9" points="120.09 311.65 8.43 313.25 7.02 314.39 7.02 332.53 120.09 330.97 120.09 311.65"/>
      <g>
        <g>
          <g>
            <g>
              <polygon class="cls-6" points="378.29 271.23 380.74 273 400.08 245.18 398.63 244.14 378.29 271.23"/>
              <polygon class="cls-6" points="378.29 230.59 380.38 232.1 396.9 208.34 395.67 207.45 378.29 230.59"/>
              <polygon class="cls-6" points="380.43 205.99 378.88 207.11 366.64 189.52 367.56 188.86 380.43 205.99"/>
              <polygon class="cls-6" points="383.27 316.95 375.58 316.95 378.65 181.31 380.2 181.31 383.27 316.95"/>
            </g>
            <path class="cls-10" d="m421.17,241.71c.2-.6.31-1.24.31-1.91,0-3.32-2.7-6.02-6.02-6.02-.49,0-.96.06-1.42.17-.51-5.22-4.91-9.31-10.27-9.31-3.71,0-6.95,1.97-8.77,4.91-1.43-.66-3.01-1.03-4.69-1.03-6.23,0-11.28,5.05-11.28,11.28,0,.08,0,.15.01.22-3.16.79-5.5,3.63-5.5,7.03,0,4.01,3.25,7.26,7.26,7.26.53,0,1.05-.06,1.54-.17,1.98,3.25,5.55,5.43,9.63,5.43.31,0,.61-.02.92-.05,2.07,2.5,5.2,4.1,8.7,4.1s6.79-1.69,8.86-4.31c1.66,1.14,3.66,1.8,5.83,1.8,5.7,0,10.32-4.62,10.32-10.32,0-3.93-2.2-7.34-5.43-9.09Z"/>
            <path class="cls-12" d="m420.34,255.65c-1.84,0-3.54-.57-4.95-1.53-1.76,2.23-4.47,3.66-7.53,3.66s-5.63-1.35-7.39-3.48c-.26.02-.52.04-.78.04-3.47,0-6.5-1.85-8.18-4.61-.42.09-.86.14-1.31.14-3.41,0-6.17-2.76-6.17-6.17,0-2.89,1.99-5.31,4.67-5.98,0-.06,0-.13,0-.19,0-3.66,2.05-6.84,5.07-8.46-1.08-.35-2.24-.55-3.44-.55-6.23,0-11.28,5.05-11.28,11.28,0,.08,0,.15.01.22-3.16.79-5.5,3.63-5.5,7.03,0,4.01,3.25,7.26,7.26,7.26.53,0,1.05-.06,1.54-.17,1.98,3.25,5.55,5.43,9.63,5.43.31,0,.61-.02.92-.05,2.07,2.5,5.2,4.1,8.7,4.1s6.79-1.69,8.86-4.31c1.66,1.14,3.66,1.8,5.83,1.8,4.83,0,8.87-3.32,10-7.8-1.56,1.44-3.64,2.33-5.94,2.33Z"/>
          </g>
          <g>
            <path class="cls-10" d="m405.66,208.55c0-4.3-3.48-7.78-7.78-7.78s-7.44,3.17-7.75,7.18c-1.16-1.55-3-2.56-5.09-2.56-3.51,0-6.36,2.85-6.36,6.36s2.85,6.36,6.36,6.36c.25,0,.49-.02.72-.04,0,.03,0,.06,0,.1,0,4.69,3.8,8.49,8.49,8.49,2.98,0,5.59-1.54,7.11-3.86,1.23.81,2.7,1.29,4.29,1.29,4.3,0,7.78-3.48,7.78-7.78s-3.48-7.78-7.78-7.78Z"/>
            <path class="cls-12" d="m407.68,220.72c-1.39,0-2.67-.42-3.75-1.13-1.33,2.03-3.61,3.37-6.21,3.37-4.1,0-7.42-3.32-7.42-7.42,0-.03,0-.06,0-.09-.21.02-.42.04-.63.04-3.07,0-5.56-2.49-5.56-5.56,0-1.79.85-3.38,2.17-4.4-.4-.08-.81-.13-1.23-.13-3.51,0-6.36,2.85-6.36,6.36s2.85,6.36,6.36,6.36c.25,0,.49-.02.72-.04,0,.03,0,.06,0,.1,0,4.69,3.8,8.49,8.49,8.49,2.98,0,5.59-1.54,7.11-3.86,1.23.81,2.7,1.29,4.29,1.29,3.81,0,6.98-2.75,7.64-6.37-1.22,1.8-3.28,2.98-5.62,2.98Z"/>
          </g>
          <path class="cls-10" d="m394.55,173.36c-.45,0-.89.02-1.33.07-1.06-6.12-6.38-10.77-12.8-10.77s-11.28,4.26-12.64,9.99c-1.13-.69-2.45-1.1-3.87-1.1-4.09,0-7.41,3.32-7.41,7.41,0,.21.01.42.03.63-5.23,1.68-9.02,6.58-9.02,12.37,0,7.18,5.82,13,13,13,3.48,0,6.64-1.38,8.98-3.61,2.32,3.58,6.34,5.96,10.92,5.96,5.45,0,10.12-3.36,12.05-8.12.68.11,1.37.18,2.08.18,7.18,0,13-5.82,13-13s-5.82-13-13-13Z"/>
          <path class="cls-12" d="m406.8,182.04c.04.4.07.81.07,1.22,0,6.06-4.91,10.97-10.97,10.97-.6,0-1.18-.06-1.75-.15-1.63,4.02-5.56,6.86-10.17,6.86-3.87,0-7.26-2.01-9.21-5.03-1.97,1.88-4.63,3.05-7.57,3.05-6.06,0-10.97-4.91-10.97-10.97,0-4.89,3.2-9.02,7.61-10.44-.01-.18-.03-.35-.03-.53,0-2.07,1.01-3.89,2.55-5.03-.76-.27-1.58-.43-2.44-.43-4.09,0-7.41,3.32-7.41,7.41,0,.21.01.42.03.63-5.23,1.68-9.02,6.58-9.02,12.37,0,7.18,5.82,13,13,13,3.48,0,6.64-1.38,8.98-3.61,2.32,3.58,6.34,5.96,10.92,5.96,5.45,0,10.12-3.36,12.05-8.12.68.11,1.37.18,2.08.18,7.18,0,13-5.82,13-13,0-1.52-.27-2.97-.75-4.32Z"/>
          <g>
            <g>
              <path class="cls-10" d="m389.78,229.54c0-6.55-5.31-11.86-11.86-11.86-.65,0-1.28.07-1.9.17.07-.48.12-.96.12-1.45,0-5.38-4.36-9.74-9.74-9.74-2.48,0-4.73.93-6.45,2.46-2.37-3.22-6.17-5.33-10.48-5.33-6.38,0-11.67,4.59-12.78,10.65-4.11.27-7.36,3.68-7.36,7.86,0,1.46.4,2.82,1.09,3.99-4.9,3.69-5.97,10.64-2.36,15.63,3.66,5.05,10.72,6.19,15.77,2.53.05-.03.09-.07.13-.11,2.41,4.55,7.18,7.65,12.69,7.65,4.89,0,9.21-2.45,11.8-6.19,1.25.64,2.66,1,4.16,1,3.9,0,7.22-2.44,8.55-5.87,4.97-1.41,8.61-5.98,8.61-11.4Z"/>
              <path class="cls-12" d="m389.61,227.59c-.72,4.05-3.71,7.32-7.61,8.43-1.2,3.1-4.2,5.3-7.72,5.3-1.35,0-2.63-.33-3.76-.91-2.34,3.38-6.24,5.59-10.66,5.59-4.97,0-9.29-2.8-11.46-6.91-.04.03-.08.07-.12.1-4.57,3.3-10.95,2.28-14.25-2.29-3.26-4.51-2.3-10.79,2.13-14.13-.62-1.06-.99-2.29-.99-3.6,0-3.77,2.94-6.85,6.65-7.1.64-3.51,2.85-6.47,5.87-8.15-5.55.77-9.98,5.04-10.98,10.51-4.11.27-7.36,3.68-7.36,7.86,0,1.46.4,2.82,1.09,3.99-4.9,3.69-5.97,10.64-2.36,15.63,3.66,5.05,10.72,6.19,15.77,2.53.05-.03.09-.07.13-.11,2.41,4.55,7.18,7.65,12.69,7.65,4.89,0,9.21-2.45,11.8-6.19,1.25.64,2.66,1,4.16,1,3.9,0,7.22-2.44,8.55-5.87,4.97-1.41,8.61-5.98,8.61-11.4,0-.67-.07-1.31-.17-1.95Z"/>
            </g>
            <polygon class="cls-6" points="379.54 253.05 377.37 254.62 360.26 230.01 361.54 229.08 379.54 253.05"/>
          </g>
        </g>
        <g>
          <g>
            <g>
              <polygon class="cls-6" points="406.17 279.54 403.72 281.31 384.38 253.5 385.82 252.46 406.17 279.54"/>
              <polygon class="cls-6" points="406.17 238.91 404.07 240.42 387.55 216.66 388.79 215.77 406.17 238.91"/>
              <polygon class="cls-6" points="404.03 214.31 405.58 215.43 417.81 197.84 416.9 197.18 404.03 214.31"/>
              <polygon class="cls-6" points="401.19 325.27 408.88 325.27 405.8 189.62 404.26 189.62 401.19 325.27"/>
            </g>
            <path class="cls-10" d="m363.29,250.03c-.2-.6-.31-1.24-.31-1.91,0-3.32,2.7-6.02,6.02-6.02.49,0,.96.06,1.42.17.51-5.22,4.91-9.31,10.27-9.31,3.71,0,6.95,1.97,8.77,4.91,1.43-.66,3.01-1.03,4.69-1.03,6.23,0,11.28,5.05,11.28,11.28,0,.08,0,.15-.01.22,3.16.79,5.5,3.63,5.5,7.03,0,4.01-3.25,7.26-7.26,7.26-.53,0-1.05-.06-1.54-.17-1.98,3.25-5.55,5.43-9.63,5.43-.31,0-.61-.02-.92-.05-2.07,2.5-5.2,4.1-8.7,4.1s-6.79-1.69-8.86-4.31c-1.66,1.14-3.66,1.8-5.83,1.8-5.7,0-10.32-4.62-10.32-10.32,0-3.93,2.2-7.34,5.43-9.09Z"/>
            <path class="cls-12" d="m364.12,263.97c1.84,0,3.54-.57,4.95-1.53,1.76,2.23,4.47,3.66,7.53,3.66s5.63-1.35,7.39-3.48c.26.02.52.04.78.04,3.47,0,6.5-1.85,8.18-4.61.42.09.86.14,1.31.14,3.41,0,6.17-2.76,6.17-6.17,0-2.89-1.99-5.31-4.67-5.98,0-.06,0-.13,0-.19,0-3.66-2.05-6.84-5.07-8.46,1.08-.35,2.24-.55,3.44-.55,6.23,0,11.28,5.05,11.28,11.28,0,.08,0,.15-.01.22,3.16.79,5.5,3.63,5.5,7.03,0,4.01-3.25,7.26-7.26,7.26-.53,0-1.05-.06-1.54-.17-1.98,3.25-5.55,5.43-9.63,5.43-.31,0-.61-.02-.92-.05-2.07,2.5-5.2,4.1-8.7,4.1s-6.79-1.69-8.86-4.31c-1.66,1.14-3.66,1.8-5.83,1.8-4.83,0-8.87-3.32-10-7.8,1.56,1.44,3.64,2.33,5.94,2.33Z"/>
          </g>
          <g>
            <path class="cls-10" d="m378.8,216.87c0-4.3,3.48-7.78,7.78-7.78s7.44,3.17,7.75,7.18c1.16-1.55,3-2.56,5.09-2.56,3.51,0,6.36,2.85,6.36,6.36s-2.85,6.36-6.36,6.36c-.25,0-.49-.02-.72-.04,0,.03,0,.06,0,.1,0,4.69-3.8,8.49-8.49,8.49-2.98,0-5.59-1.54-7.11-3.86-1.23.81-2.7,1.29-4.29,1.29-4.3,0-7.78-3.48-7.78-7.78s3.48-7.78,7.78-7.78Z"/>
            <path class="cls-12" d="m376.78,229.04c1.39,0,2.67-.42,3.75-1.13,1.33,2.03,3.61,3.37,6.21,3.37,4.1,0,7.42-3.32,7.42-7.42,0-.03,0-.06,0-.09.21.02.42.04.63.04,3.07,0,5.56-2.49,5.56-5.56,0-1.79-.85-3.38-2.17-4.4.4-.08.81-.13,1.23-.13,3.51,0,6.36,2.85,6.36,6.36s-2.85,6.36-6.36,6.36c-.25,0-.49-.02-.72-.04,0,.03,0,.06,0,.1,0,4.69-3.8,8.49-8.49,8.49-2.98,0-5.59-1.54-7.11-3.86-1.23.81-2.7,1.29-4.29,1.29-3.81,0-6.98-2.75-7.64-6.37,1.22,1.8,3.28,2.98,5.62,2.98Z"/>
          </g>
          <path class="cls-10" d="m389.91,181.68c.45,0,.89.02,1.33.07,1.06-6.12,6.38-10.77,12.8-10.77,6.14,0,11.28,4.26,12.64,9.99,1.13-.69,2.45-1.1,3.87-1.1,4.09,0,7.41,3.32,7.41,7.41,0,.21-.01.42-.03.63,5.23,1.68,9.02,6.58,9.02,12.37,0,7.18-5.82,13-13,13-3.48,0-6.64-1.38-8.98-3.61-2.32,3.58-6.34,5.96-10.92,5.96-5.45,0-10.12-3.36-12.05-8.13-.68.11-1.37.18-2.08.18-7.18,0-13-5.82-13-13s5.82-13,13-13Z"/>
          <path class="cls-12" d="m377.65,190.36c-.04.4-.07.81-.07,1.22,0,6.06,4.91,10.97,10.97,10.97.6,0,1.18-.06,1.75-.15,1.63,4.02,5.56,6.86,10.17,6.86,3.87,0,7.26-2.01,9.21-5.03,1.97,1.88,4.63,3.05,7.57,3.05,6.06,0,10.97-4.91,10.97-10.97,0-4.89-3.2-9.02-7.61-10.44.01-.18.03-.35.03-.53,0-2.07-1.01-3.89-2.55-5.03.76-.27,1.58-.43,2.44-.43,4.09,0,7.41,3.32,7.41,7.41,0,.21-.01.42-.03.63,5.23,1.68,9.02,6.58,9.02,12.37,0,7.18-5.82,13-13,13-3.48,0-6.64-1.38-8.98-3.61-2.32,3.58-6.34,5.96-10.92,5.96-5.45,0-10.12-3.36-12.05-8.13-.68.11-1.37.18-2.08.18-7.18,0-13-5.82-13-13,0-1.52.27-2.97.75-4.32Z"/>
          <g>
            <g>
              <path class="cls-10" d="m403.28,249.25c1.33,3.43,4.65,5.87,8.55,5.87,1.5,0,2.91-.37,4.16-1,2.59,3.74,6.91,6.19,11.8,6.19,5.5,0,10.28-3.1,12.69-7.65.05.03.09.07.13.11,5.05,3.66,12.11,2.52,15.77-2.53,3.61-4.99,2.54-11.94-2.36-15.63.69-1.17,1.09-2.53,1.09-3.99,0-4.18-3.25-7.59-7.36-7.86-1.11-6.06-6.4-10.65-12.78-10.65-4.31,0-8.11,2.1-10.48,5.33-1.72-1.52-3.97-2.46-6.45-2.46-5.38,0-9.74,4.36-9.74,9.74,0,.5.05.98.12,1.45-.62-.1-1.25-.17-1.9-.17-6.55,0-11.86,5.31-11.86,11.86,0,5.42,3.64,9.98,8.61,11.4Z"/>
              <path class="cls-12" d="m394.85,235.91c.72,4.05,3.71,7.32,7.61,8.43,1.2,3.1,4.2,5.3,7.72,5.3,1.35,0,2.63-.33,3.76-.91,2.34,3.38,6.24,5.59,10.66,5.59,4.97,0,9.29-2.8,11.46-6.91.04.03.08.07.12.1,4.57,3.3,10.95,2.28,14.25-2.29,3.26-4.51,2.3-10.79-2.13-14.13.62-1.06.99-2.29.99-3.6,0-3.77-2.94-6.85-6.65-7.1-.64-3.51-2.85-6.47-5.87-8.15,5.55.77,9.98,5.04,10.98,10.51,4.11.27,7.36,3.68,7.36,7.86,0,1.46-.4,2.82-1.09,3.99,4.9,3.69,5.97,10.64,2.36,15.63-3.66,5.05-10.72,6.19-15.77,2.53-.05-.03-.09-.07-.13-.11-2.41,4.55-7.18,7.65-12.69,7.65-4.89,0-9.21-2.45-11.8-6.19-1.25.64-2.66,1-4.16,1-3.9,0-7.22-2.44-8.55-5.87-4.97-1.41-8.61-5.98-8.61-11.4,0-.67.07-1.31.17-1.95Z"/>
            </g>
            <polygon class="cls-6" points="404.92 261.37 407.09 262.94 424.2 238.33 422.92 237.4 404.92 261.37"/>
          </g>
        </g>
        <g>
          <g>
            <g>
              <polygon class="cls-6" points="428.74 258.09 426.29 259.86 406.95 232.05 408.39 231 428.74 258.09"/>
              <polygon class="cls-6" points="428.74 217.46 426.64 218.97 410.12 195.21 411.36 194.32 428.74 217.46"/>
              <polygon class="cls-6" points="426.6 192.86 428.15 193.98 440.38 176.38 439.47 175.72 426.6 192.86"/>
              <polygon class="cls-6" points="423.75 303.82 431.45 303.82 428.37 168.17 426.83 168.17 423.75 303.82"/>
            </g>
            <path class="cls-10" d="m385.85,228.58c-.2-.6-.31-1.24-.31-1.91,0-3.32,2.7-6.02,6.02-6.02.49,0,.96.06,1.42.17.51-5.22,4.91-9.31,10.27-9.31,3.71,0,6.95,1.97,8.77,4.91,1.43-.66,3.01-1.03,4.69-1.03,6.23,0,11.28,5.05,11.28,11.28,0,.08,0,.15-.01.22,3.16.79,5.5,3.63,5.5,7.03,0,4.01-3.25,7.26-7.26,7.26-.53,0-1.05-.06-1.54-.17-1.98,3.25-5.55,5.43-9.63,5.43-.31,0-.61-.02-.92-.05-2.07,2.5-5.2,4.1-8.7,4.1s-6.79-1.69-8.86-4.31c-1.66,1.14-3.66,1.8-5.83,1.8-5.7,0-10.32-4.62-10.32-10.32,0-3.93,2.2-7.34,5.43-9.09Z"/>
            <path class="cls-12" d="m386.69,242.52c1.84,0,3.54-.57,4.95-1.53,1.76,2.23,4.47,3.66,7.53,3.66s5.63-1.35,7.39-3.48c.26.02.52.04.78.04,3.47,0,6.5-1.85,8.18-4.61.42.09.86.14,1.31.14,3.41,0,6.17-2.76,6.17-6.17,0-2.89-1.99-5.31-4.67-5.98,0-.06,0-.13,0-.19,0-3.66-2.05-6.84-5.07-8.46,1.08-.35,2.24-.55,3.44-.55,6.23,0,11.28,5.05,11.28,11.28,0,.08,0,.15-.01.22,3.16.79,5.5,3.63,5.5,7.03,0,4.01-3.25,7.26-7.26,7.26-.53,0-1.05-.06-1.54-.17-1.98,3.25-5.55,5.43-9.63,5.43-.31,0-.61-.02-.92-.05-2.07,2.5-5.2,4.1-8.7,4.1s-6.79-1.69-8.86-4.31c-1.66,1.14-3.66,1.8-5.83,1.8-4.83,0-8.87-3.32-10-7.8,1.56,1.44,3.64,2.33,5.94,2.33Z"/>
          </g>
          <g>
            <path class="cls-10" d="m401.37,195.42c0-4.3,3.48-7.78,7.78-7.78s7.44,3.17,7.75,7.18c1.16-1.55,3-2.56,5.09-2.56,3.51,0,6.36,2.85,6.36,6.36s-2.85,6.36-6.36,6.36c-.25,0-.49-.02-.72-.04,0,.03,0,.06,0,.1,0,4.69-3.8,8.49-8.49,8.49-2.98,0-5.59-1.54-7.11-3.86-1.23.81-2.7,1.29-4.29,1.29-4.3,0-7.78-3.48-7.78-7.78s3.48-7.78,7.78-7.78Z"/>
            <path class="cls-12" d="m399.35,207.58c1.39,0,2.67-.42,3.75-1.13,1.33,2.03,3.61,3.37,6.21,3.37,4.1,0,7.42-3.32,7.42-7.42,0-.03,0-.06,0-.09.21.02.42.04.63.04,3.07,0,5.56-2.49,5.56-5.56,0-1.79-.85-3.38-2.17-4.4.4-.08.81-.13,1.23-.13,3.51,0,6.36,2.85,6.36,6.36s-2.85,6.36-6.36,6.36c-.25,0-.49-.02-.72-.04,0,.03,0,.06,0,.1,0,4.69-3.8,8.49-8.49,8.49-2.98,0-5.59-1.54-7.11-3.86-1.23.81-2.7,1.29-4.29,1.29-3.81,0-6.98-2.75-7.64-6.37,1.22,1.8,3.28,2.98,5.62,2.98Z"/>
          </g>
          <path class="cls-10" d="m412.47,160.23c.45,0,.89.02,1.33.07,1.06-6.12,6.38-10.77,12.8-10.77,6.14,0,11.28,4.26,12.64,9.99,1.13-.69,2.45-1.1,3.87-1.1,4.09,0,7.41,3.32,7.41,7.41,0,.21-.01.42-.03.63,5.23,1.68,9.02,6.58,9.02,12.37,0,7.18-5.82,13-13,13-3.48,0-6.64-1.38-8.98-3.61-2.32,3.58-6.34,5.96-10.92,5.96-5.45,0-10.12-3.36-12.05-8.13-.68.11-1.37.18-2.08.18-7.18,0-13-5.82-13-13s5.82-13,13-13Z"/>
          <path class="cls-12" d="m400.22,168.91c-.04.4-.07.81-.07,1.22,0,6.06,4.91,10.97,10.97,10.97.6,0,1.18-.06,1.75-.15,1.63,4.02,5.56,6.86,10.17,6.86,3.87,0,7.26-2.01,9.21-5.03,1.97,1.88,4.63,3.05,7.57,3.05,6.06,0,10.97-4.91,10.97-10.97,0-4.89-3.2-9.02-7.61-10.44.01-.18.03-.35.03-.53,0-2.07-1.01-3.89-2.55-5.03.76-.27,1.58-.43,2.44-.43,4.09,0,7.41,3.32,7.41,7.41,0,.21-.01.42-.03.63,5.23,1.68,9.02,6.58,9.02,12.37,0,7.18-5.82,13-13,13-3.48,0-6.64-1.38-8.98-3.61-2.32,3.58-6.34,5.96-10.92,5.96-5.45,0-10.12-3.36-12.05-8.13-.68.11-1.37.18-2.08.18-7.18,0-13-5.82-13-13,0-1.52.27-2.97.75-4.32Z"/>
          <g>
            <g>
              <path class="cls-10" d="m425.85,227.8c1.33,3.43,4.65,5.87,8.55,5.87,1.5,0,2.91-.37,4.16-1,2.59,3.74,6.91,6.19,11.8,6.19,5.5,0,10.28-3.1,12.69-7.65.05.03.09.07.13.11,5.05,3.66,12.11,2.52,15.77-2.53,3.61-4.99,2.54-11.94-2.36-15.63.69-1.17,1.09-2.53,1.09-3.99,0-4.18-3.25-7.59-7.36-7.86-1.11-6.06-6.4-10.65-12.78-10.65-4.31,0-8.11,2.1-10.48,5.33-1.72-1.52-3.97-2.46-6.45-2.46-5.38,0-9.74,4.36-9.74,9.74,0,.5.05.98.12,1.45-.62-.1-1.25-.17-1.9-.17-6.55,0-11.86,5.31-11.86,11.86,0,5.42,3.64,9.98,8.61,11.4Z"/>
              <path class="cls-12" d="m417.42,214.45c.72,4.05,3.71,7.32,7.61,8.43,1.2,3.1,4.2,5.3,7.72,5.3,1.35,0,2.63-.33,3.76-.91,2.34,3.38,6.24,5.59,10.66,5.59,4.97,0,9.29-2.8,11.46-6.91.04.03.08.07.12.1,4.57,3.3,10.95,2.28,14.25-2.29,3.26-4.51,2.3-10.79-2.13-14.13.62-1.06.99-2.29.99-3.6,0-3.77-2.94-6.85-6.65-7.1-.64-3.51-2.85-6.47-5.87-8.15,5.55.77,9.98,5.04,10.98,10.51,4.11.27,7.36,3.68,7.36,7.86,0,1.46-.4,2.82-1.09,3.99,4.9,3.69,5.97,10.64,2.36,15.63-3.66,5.05-10.72,6.19-15.77,2.53-.05-.03-.09-.07-.13-.11-2.41,4.55-7.18,7.65-12.69,7.65-4.89,0-9.21-2.45-11.8-6.19-1.25.64-2.66,1-4.16,1-3.9,0-7.22-2.44-8.55-5.87-4.97-1.41-8.61-5.98-8.61-11.4,0-.67.07-1.31.17-1.95Z"/>
            </g>
            <polygon class="cls-6" points="427.49 239.92 429.66 241.48 446.77 216.87 445.49 215.95 427.49 239.92"/>
          </g>
        </g>
      </g>
      <path class="cls-4" d="m79.37,310.89c-1.42-.09-20.22,2.41-21.35-3.75s-2.95-21.1-2.95-21.1c0,0,19.35-31.56,30.19-26.93,0,0-1.72,1.7,3.09.38s4.72-4.54,6.24-3.4,3.12-.85,6.43,1.51,2.93-.19,5.29-.09,2.62,1.13,2.62,1.13l.4,20.5-.4,32.68-35.5.58.28-3.31,5.67,1.8Z"/>
      <path class="cls-4" d="m22.68,311.2l-1.35-7.8s.64-1.28-2.69-1.56-5.03-2.13-7.3-.57-7.65,4.54-6.52,7.23,3.34,5.11,3.34,5.11l14.52-1.05v-1.37Z"/>
      <path class="cls-10" d="m40.75,310.07c.21.14,3.76-6.52,9.92-8.72s12.97-5.74,16.58-3.47c0,0-6.24-4.25-11.34-3.9s-9.21-.68-12.47-.02,2.13-1.04-3.54-.22-12.69,4.14-15.02,5.35-4.04,2.91-4.82,4.32-.5,6.38.43,7.51.85,2.06,5.31,2.06,13.75.14,14.67-.71.28-2.2.28-2.2Z"/>
      <path class="cls-10" d="m104.06,296.11c.29.14,7.99-16.77,3.61-16.11s2.85-1.04-4.75-.22-17.02,4.14-20.16,5.35-5.42,2.91-6.47,4.32-.67,6.38.57,7.51,1.14,2.06,7.13,2.06,18.45.14,19.68-.71.38-2.2.38-2.2Z"/>
      <path class="cls-12" d="m45.22,312.59s-4.5.32-5.22-.65-1.81-5.74,1.26-6.96,6.86-5.99,10.2-6.15,8.13-4.21,11.29-2.43,10.93.57,11.56,4.77,2.35,11.1.63,11.46-29.73-.05-29.73-.05Z"/>
      <path class="cls-12" d="m84.47,309.19s-6.71-1.32-6.8-3.97-5.2-8.03,1.7-10.2,16.25-3.97,17.86-1.89,5.39-3.97,2.83-5.57,9.35-5.1,11.24-4.25,5.1-3.48,7.28-.13,8.22,16.76,6.33,20.73,1.23,8.03-6.8,7.84-32.79,1.05-34.3,0,.66-2.56.66-2.56Z"/>
      <polygon class="cls-11" points="362.83 301.07 378.5 302.91 408.29 299.36 455.6 302.62 455.6 323.32 380.43 326.56 362.83 301.07"/>
    </g>
  </g>
</svg>