<?xml version="1.0" encoding="UTF-8"?>
<svg id="Calque_2" data-name="Calque 2" xmlns="http://www.w3.org/2000/svg" viewBox="0 0 104.95 154.3">
  <defs>
    <style>
      .cls-1 {
        fill: #443115;
      }

      .cls-2 {
        fill: #00411d;
      }

      .cls-3 {
        fill: #001d03;
      }

      .cls-4 {
        fill: #063;
      }
    </style>
  </defs>
  <g id="Naboo">
    <g>
      <g>
        <g>
          <polygon class="cls-1" points="49.27 113.92 52.16 116.01 75 83.17 73.29 81.94 49.27 113.92"/>
          <polygon class="cls-1" points="53.12 93.38 50.56 95.23 30.35 66.16 31.86 65.07 53.12 93.38"/>
          <polygon class="cls-1" points="55.42 154.3 47.6 154.3 50.73 40.84 52.3 40.84 55.42 154.3"/>
        </g>
        <path class="cls-4" d="m104.27,88.27c0-9.4-5.14-17.58-12.76-21.92,1.87-3.52,2.93-7.54,2.93-11.8,0-8.94-4.66-16.79-11.68-21.27.59-1.73.92-3.57.92-5.49,0-9.42-7.64-17.06-17.06-17.06-.64,0-1.27.04-1.9.11C60.18,4.29,52.6,0,44.01,0c-13.92,0-25.21,11.29-25.21,25.21,0,4.51,1.19,8.74,3.26,12.4C10.59,39.98,1.97,50.14,1.97,62.31c0,7.76,3.51,14.7,9.03,19.33-4.8,3.72-7.9,9.53-7.9,16.07,0,11.23,9.11,20.34,20.34,20.34,3.22,0,6.26-.77,8.97-2.1,4.89,8.49,14.05,14.21,24.55,14.21,11.6,0,21.56-6.97,25.94-16.95,12.1-1.85,21.37-12.3,21.37-24.92Z"/>
        <g>
          <path class="cls-3" d="m93.29,59.03c.23.13.45.27.67.41.17-.88.3-1.78.37-2.69-.31.78-.65,1.54-1.04,2.28Z"/>
          <path class="cls-3" d="m70.74,11.25c-.21-.05-.41-.12-.62-.16.05.06.09.12.14.19.16-.02.32-.02.48-.03Z"/>
          <path class="cls-3" d="m85.89,99.33c-3.77,8.58-12.34,14.58-22.32,14.58-9.03,0-16.91-4.92-21.12-12.22-2.33,1.15-4.94,1.81-7.72,1.81-9.66,0-17.5-7.83-17.5-17.5,0-5.63,2.67-10.62,6.8-13.82-4.75-3.98-7.77-9.95-7.77-16.63,0-10.47,7.42-19.21,17.29-21.24-3.91-2.42-12.08-11.78-4.78-29.18-6.06,4.6-9.97,11.89-9.97,20.08,0,4.51,1.19,8.74,3.26,12.4C10.59,39.98,1.97,50.14,1.97,62.31c0,7.76,3.51,14.7,9.03,19.33-4.8,3.72-7.9,9.53-7.9,16.07,0,11.23,9.11,20.34,20.34,20.34,3.22,0,6.26-.77,8.97-2.1,4.89,8.49,14.05,14.21,24.55,14.21,11.6,0,21.56-6.97,25.94-16.95,12.1-1.85,21.37-12.3,21.37-24.92,0-1.86-.21-3.67-.59-5.42-2,8.53-9.02,15.13-17.79,16.48Z"/>
        </g>
      </g>
      <g>
        <path class="cls-2" d="m84.12,33.47c.65-2.46,3.41-3.86,3.41-3.86,0,0,1.7,2.59,1.05,5.05-.65,2.46-3.41,3.86-3.41,3.86,0,0-1.7-2.59-1.05-5.05Z"/>
        <path class="cls-2" d="m13.5,55.36c1.54-2.03,4.62-2.28,4.62-2.28,0,0,.59,3.04-.95,5.07-1.54,2.03-4.62,2.28-4.62,2.28,0,0-.59-3.04.95-5.07Z"/>
        <path class="cls-2" d="m60.3,28.21c1.54-2.03,4.62-2.28,4.62-2.28,0,0,.59,3.04-.95,5.07s-4.62,2.28-4.62,2.28c0,0-.59-3.04.95-5.07Z"/>
        <path class="cls-2" d="m53.52,18.92c1.24,2.22.24,5.15.24,5.15,0,0-3.02-.68-4.26-2.9-1.24-2.22-.24-5.15-.24-5.15,0,0,3.02.68,4.26,2.9Z"/>
        <path class="cls-2" d="m75.33,56.09c2.22,1.24,2.9,4.26,2.9,4.26,0,0-2.92,1.01-5.15-.23s-2.9-4.26-2.9-4.26c0,0,2.92-1.01,5.15.23Z"/>
        <path class="cls-2" d="m32.47,100.37c-1.01,2.34-3.94,3.32-3.94,3.32,0,0-1.3-2.81-.29-5.14,1.01-2.34,3.94-3.32,3.94-3.32,0,0,1.3,2.81.3,5.14Z"/>
        <path class="cls-2" d="m35.6,48.91c-1.27-2.21-.3-5.14-.3-5.14,0,0,3.03.64,4.3,2.85,1.27,2.21.3,5.14.3,5.14,0,0-3.03-.64-4.3-2.85Z"/>
        <path class="cls-2" d="m79.33,103.13c2.13,1.39,2.6,4.45,2.6,4.45,0,0-2.99.8-5.12-.59-2.13-1.39-2.6-4.45-2.6-4.45,0,0,2.99-.8,5.12.59Z"/>
        <path class="cls-2" d="m99.8,75.66c-2.27-1.15-3.07-4.14-3.07-4.14,0,0,2.88-1.12,5.15.02,2.27,1.15,3.07,4.14,3.07,4.14,0,0-2.88,1.12-5.15-.02Z"/>
        <path class="cls-2" d="m101.79,70.1c-1.42,2.11-4.49,2.53-4.49,2.53,0,0-.76-3,.67-5.11,1.42-2.11,4.49-2.53,4.49-2.53,0,0,.76,3-.67,5.11Z"/>
        <path class="cls-2" d="m2.73,85.25c-1.44-2.1-.71-5.1-.71-5.1,0,0,3.07.4,4.51,2.49,1.44,2.1.71,5.1.71,5.1,0,0-3.07-.4-4.51-2.49Z"/>
        <path class="cls-2" d="m5.11,92.25c-2.12,1.41-5.11.63-5.11.63,0,0,.44-3.06,2.57-4.47,2.12-1.41,5.11-.63,5.11-.63,0,0-.44,3.06-2.57,4.47Z"/>
      </g>
    </g>
  </g>
</svg>