<?xml version="1.0" encoding="UTF-8"?>
<svg id="Calque_2" data-name="Calque 2" xmlns="http://www.w3.org/2000/svg" viewBox="0 0 84.29 158.87">
  <defs>
    <style>
      .cls-1 {
        fill: #009640;
      }

      .cls-2 {
        fill: #2fac66;
      }

      .cls-3 {
        fill: #1c6c40;
      }

      .cls-4 {
        fill: #866135;
      }
    </style>
  </defs>
  <g id="Naboo">
    <g>
      <polygon class="cls-4" points="48.85 158.87 35.45 158.87 37.45 133.81 46.84 133.81 48.85 158.87"/>
      <g>
        <g>
          <path class="cls-2" d="m76.13,98.89c-6.24-8.66-.88-19.35-4.38-27.72-3.62-8.67-6.59-8.8-9.92-16.09-3-6.57,2.67-16.05-.5-23.1-4.62-10.28-7.7-8.53-9.69-18.12-1.11-5.37-6.37-13.86-9.49-13.86s-8.38,8.49-9.49,13.86c-1.98,9.59-5.07,7.84-9.69,18.12-3.17,7.05,2.49,16.53-.5,23.1-3.32,7.29-6.29,7.42-9.92,16.09-3.5,8.36,1.86,19.06-4.38,27.72C-.46,110.85-1.4,119.23,1.42,125.63c3.2,7.27,23.96,12.31,40.72,12.31s37.52-5.04,40.72-12.31c2.82-6.4,1.88-14.78-6.75-26.75Z"/>
          <path class="cls-3" d="m54.57,129.54c-16.76,0-27.91-5.79-32.09-11.2-4.32-5.58-2.08-8.15,4.19-21.38,4.74-10.02-3.5-19.42,0-27.78,3.62-8.67,2.26-8.59,5.58-15.88,3-6.57-5.27-14.46-1.67-21.33,4.47-8.53,3.2-23.49,2.09-18.12-1.98,9.59-5.07,7.84-9.69,18.12-3.17,7.05,2.49,16.53-.5,23.1-3.32,7.29-6.29,7.42-9.92,16.09-3.5,8.36,1.86,19.06-4.38,27.72C-.46,110.85-1.4,119.23,1.42,125.63c3.2,7.27,23.96,12.31,40.72,12.31s35.87-4.65,40.25-11.45c-8.12,2.69-18.4,3.06-27.83,3.06Z"/>
        </g>
        <g>
          <path class="cls-1" d="m22.5,73.49c2.03-1.75,5.26-1.32,5.26-1.32,0,0-.07,3.26-2.1,5-2.03,1.75-5.26,1.32-5.26,1.32,0,0,.07-3.26,2.1-5Z"/>
          <path class="cls-1" d="m30.2,37.98c1.62-2.14,4.87-2.4,4.87-2.4,0,0,.62,3.2-1,5.33-1.62,2.14-4.87,2.4-4.87,2.4,0,0-.62-3.2,1-5.33Z"/>
          <path class="cls-1" d="m48.99,48.98c1.62-2.14,4.87-2.4,4.87-2.4,0,0,.62,3.2-1,5.33s-4.87,2.4-4.87,2.4c0,0-.62-3.2,1-5.33Z"/>
          <path class="cls-1" d="m47.89,20.64c1.31,2.34.25,5.42.25,5.42,0,0-3.18-.71-4.49-3.05-1.31-2.34-.25-5.42-.25-5.42,0,0,3.18.71,4.49,3.05Z"/>
          <path class="cls-1" d="m53.29,56.21c2.34,1.31,3.06,4.48,3.06,4.48,0,0-3.08,1.06-5.42-.24-2.34-1.31-3.06-4.48-3.06-4.48,0,0,3.08-1.06,5.42.24Z"/>
          <path class="cls-1" d="m27.39,118.12c-1.06,2.46-4.15,3.5-4.15,3.5,0,0-1.37-2.95-.31-5.42,1.06-2.46,4.15-3.5,4.15-3.5,0,0,1.37,2.95.31,5.42Z"/>
          <path class="cls-1" d="m62.32,129.31c-1.94,1.85-5.19,1.59-5.19,1.59,0,0-.1-3.26,1.84-5.1,1.94-1.85,5.19-1.59,5.19-1.59,0,0,.1,3.26-1.84,5.1Z"/>
          <path class="cls-1" d="m73.56,89.04c-2.39-1.21-3.23-4.36-3.23-4.36,0,0,3.03-1.18,5.42.03s3.23,4.36,3.23,4.36c0,0-3.03,1.18-5.42-.03Z"/>
          <path class="cls-1" d="m75.66,83.19c-1.5,2.22-4.73,2.67-4.73,2.67,0,0-.8-3.16.7-5.38,1.5-2.22,4.73-2.66,4.73-2.66,0,0,.8,3.16-.7,5.38Z"/>
          <path class="cls-1" d="m7.57,90.96c-1.52-2.21-.75-5.37-.75-5.37,0,0,3.23.42,4.75,2.62,1.52,2.21.75,5.37.75,5.37,0,0-3.23-.42-4.75-2.62Z"/>
          <path class="cls-1" d="m39.54,102.48c-1.96-1.83-1.88-5.09-1.88-5.09,0,0,3.24-.29,5.2,1.55,1.96,1.83,1.88,5.09,1.88,5.09,0,0-3.24.29-5.2-1.55Z"/>
          <path class="cls-1" d="m10.24,98.15c-1.55,2.19-4.79,2.55-4.79,2.55,0,0-.72-3.18.83-5.36,1.55-2.19,4.79-2.55,4.79-2.55,0,0,.72,3.18-.83,5.36Z"/>
        </g>
      </g>
    </g>
  </g>
</svg>