<?xml version="1.0" encoding="UTF-8"?>
<svg id="Calque_2" data-name="Calque 2" xmlns="http://www.w3.org/2000/svg" viewBox="0 0 102.03 154.3">
  <defs>
    <style>
      .cls-1 {
        fill: #6e952d;
      }

      .cls-2 {
        fill: #76ab36;
      }

      .cls-3 {
        fill: #7cba3d;
      }

      .cls-4 {
        fill: #866135;
      }

      .cls-5 {
        fill: #008d36;
      }

      .cls-6 {
        fill: #063;
      }
    </style>
  </defs>
  <g id="Naboo">
    <g>
      <g>
        <g>
          <polygon class="cls-4" points="52.36 108.57 54.81 110.34 74.15 82.53 72.7 81.48 52.36 108.57"/>
          <polygon class="cls-4" points="52.36 67.93 54.45 69.45 70.97 45.69 69.74 44.79 52.36 67.93"/>
          <polygon class="cls-4" points="54.49 43.34 52.94 44.46 40.71 26.86 41.62 26.2 54.49 43.34"/>
          <polygon class="cls-4" points="57.34 154.3 49.65 154.3 52.72 18.65 54.27 18.65 57.34 154.3"/>
        </g>
        <path class="cls-5" d="m95.24,79.06c.2-.6.31-1.24.31-1.91,0-3.32-2.7-6.02-6.02-6.02-.49,0-.96.06-1.42.17-.51-5.22-4.91-9.31-10.27-9.31-3.71,0-6.95,1.97-8.77,4.91-1.43-.66-3.01-1.03-4.69-1.03-6.23,0-11.28,5.05-11.28,11.28,0,.08,0,.15.01.22-3.16.79-5.5,3.63-5.5,7.03,0,4.01,3.25,7.26,7.26,7.26.53,0,1.05-.06,1.54-.17,1.98,3.25,5.55,5.43,9.63,5.43.31,0,.61-.02.92-.05,2.07,2.5,5.2,4.1,8.7,4.1s6.79-1.69,8.86-4.31c1.66,1.14,3.66,1.8,5.83,1.8,5.7,0,10.32-4.62,10.32-10.32,0-3.93-2.2-7.34-5.43-9.09Z"/>
        <path class="cls-6" d="m94.41,93c-1.84,0-3.54-.57-4.95-1.53-1.76,2.23-4.47,3.66-7.53,3.66s-5.63-1.35-7.39-3.48c-.26.02-.52.04-.78.04-3.47,0-6.5-1.85-8.18-4.61-.42.09-.86.14-1.31.14-3.41,0-6.17-2.76-6.17-6.17,0-2.89,1.99-5.31,4.67-5.98,0-.06,0-.13,0-.19,0-3.66,2.05-6.84,5.07-8.46-1.08-.35-2.24-.55-3.44-.55-6.23,0-11.28,5.05-11.28,11.28,0,.08,0,.15.01.22-3.16.79-5.5,3.63-5.5,7.03,0,4.01,3.25,7.26,7.26,7.26.53,0,1.05-.06,1.54-.17,1.98,3.25,5.55,5.43,9.63,5.43.31,0,.61-.02.92-.05,2.07,2.5,5.2,4.1,8.7,4.1s6.79-1.69,8.86-4.31c1.66,1.14,3.66,1.8,5.83,1.8,4.83,0,8.87-3.32,10-7.8-1.56,1.44-3.64,2.33-5.94,2.33Z"/>
      </g>
      <g>
        <path class="cls-5" d="m79.72,45.89c0-4.3-3.48-7.78-7.78-7.78s-7.44,3.17-7.75,7.18c-1.16-1.55-3-2.56-5.09-2.56-3.51,0-6.36,2.85-6.36,6.36s2.85,6.36,6.36,6.36c.25,0,.49-.02.72-.04,0,.03,0,.06,0,.1,0,4.69,3.8,8.49,8.49,8.49,2.98,0,5.59-1.54,7.11-3.86,1.23.81,2.7,1.29,4.29,1.29,4.3,0,7.78-3.48,7.78-7.78s-3.48-7.78-7.78-7.78Z"/>
        <path class="cls-6" d="m81.74,58.06c-1.39,0-2.67-.42-3.75-1.13-1.33,2.03-3.61,3.37-6.21,3.37-4.1,0-7.42-3.32-7.42-7.42,0-.03,0-.06,0-.09-.21.02-.42.04-.63.04-3.07,0-5.56-2.49-5.56-5.56,0-1.79.85-3.38,2.17-4.4-.4-.08-.81-.13-1.23-.13-3.51,0-6.36,2.85-6.36,6.36s2.85,6.36,6.36,6.36c.25,0,.49-.02.72-.04,0,.03,0,.06,0,.1,0,4.69,3.8,8.49,8.49,8.49,2.98,0,5.59-1.54,7.11-3.86,1.23.81,2.7,1.29,4.29,1.29,3.81,0,6.98-2.75,7.64-6.37-1.22,1.8-3.28,2.98-5.62,2.98Z"/>
      </g>
      <path class="cls-5" d="m68.62,10.71c-.45,0-.89.02-1.33.07-1.06-6.12-6.38-10.77-12.8-10.77s-11.28,4.26-12.64,9.99c-1.13-.69-2.45-1.1-3.87-1.1-4.09,0-7.41,3.32-7.41,7.41,0,.21.01.42.03.63-5.23,1.68-9.02,6.58-9.02,12.37,0,7.18,5.82,13,13,13,3.48,0,6.64-1.38,8.98-3.61,2.32,3.58,6.34,5.96,10.92,5.96,5.45,0,10.12-3.36,12.05-8.12.68.11,1.37.18,2.08.18,7.18,0,13-5.82,13-13s-5.82-13-13-13Z"/>
      <path class="cls-6" d="m80.87,19.39c.04.4.07.81.07,1.22,0,6.06-4.91,10.97-10.97,10.97-.6,0-1.18-.06-1.75-.15-1.63,4.02-5.56,6.86-10.17,6.86-3.87,0-7.26-2.01-9.21-5.03-1.97,1.88-4.63,3.05-7.57,3.05-6.06,0-10.97-4.91-10.97-10.97,0-4.89,3.2-9.02,7.61-10.44-.01-.18-.03-.35-.03-.53,0-2.07,1.01-3.89,2.55-5.03-.76-.27-1.58-.43-2.44-.43-4.09,0-7.41,3.32-7.41,7.41,0,.21.01.42.03.63-5.23,1.68-9.02,6.58-9.02,12.37,0,7.18,5.82,13,13,13,3.48,0,6.64-1.38,8.98-3.61,2.32,3.58,6.34,5.96,10.92,5.96,5.45,0,10.12-3.36,12.05-8.12.68.11,1.37.18,2.08.18,7.18,0,13-5.82,13-13,0-1.52-.27-2.97-.75-4.32Z"/>
      <g>
        <g>
          <path class="cls-5" d="m63.85,66.88c0-6.55-5.31-11.86-11.86-11.86-.65,0-1.28.07-1.9.17.07-.48.12-.96.12-1.45,0-5.38-4.36-9.74-9.74-9.74-2.48,0-4.73.93-6.45,2.46-2.37-3.22-6.17-5.33-10.48-5.33-6.38,0-11.67,4.59-12.78,10.65-4.11.27-7.36,3.68-7.36,7.86,0,1.46.4,2.82,1.09,3.99-4.9,3.69-5.97,10.64-2.36,15.63,3.66,5.05,10.72,6.19,15.77,2.53.05-.03.09-.07.13-.11,2.41,4.55,7.18,7.65,12.69,7.65,4.89,0,9.21-2.45,11.8-6.19,1.25.64,2.66,1,4.16,1,3.9,0,7.22-2.44,8.55-5.87,4.97-1.41,8.61-5.98,8.61-11.4Z"/>
          <path class="cls-6" d="m63.68,64.93c-.72,4.05-3.71,7.32-7.61,8.43-1.2,3.1-4.2,5.3-7.72,5.3-1.35,0-2.63-.33-3.76-.91-2.34,3.38-6.24,5.59-10.66,5.59-4.97,0-9.29-2.8-11.46-6.91-.04.03-.08.07-.12.1-4.57,3.3-10.95,2.28-14.25-2.29-3.26-4.51-2.3-10.79,2.13-14.13-.62-1.06-.99-2.29-.99-3.6,0-3.77,2.94-6.85,6.65-7.1.64-3.51,2.85-6.47,5.87-8.15-5.55.77-9.98,5.04-10.98,10.51-4.11.27-7.36,3.68-7.36,7.86,0,1.46.4,2.82,1.09,3.99-4.9,3.69-5.97,10.64-2.36,15.63,3.66,5.05,10.72,6.19,15.77,2.53.05-.03.09-.07.13-.11,2.41,4.55,7.18,7.65,12.69,7.65,4.89,0,9.21-2.45,11.8-6.19,1.25.64,2.66,1,4.16,1,3.9,0,7.22-2.44,8.55-5.87,4.97-1.41,8.61-5.98,8.61-11.4,0-.67-.07-1.31-.17-1.95Z"/>
        </g>
        <polygon class="cls-4" points="53.61 90.4 51.44 91.96 34.33 67.35 35.61 66.43 53.61 90.4"/>
      </g>
      <g>
        <path class="cls-2" d="m71.1,11.47c.55-2.08,2.89-3.27,2.89-3.27,0,0,1.44,2.19.89,4.27-.55,2.08-2.89,3.27-2.89,3.27,0,0-1.44-2.19-.89-4.27Z"/>
        <path class="cls-2" d="m28.55,25.59c1.3-1.72,3.91-1.93,3.91-1.93,0,0,.5,2.57-.8,4.29-1.3,1.72-3.91,1.93-3.91,1.93,0,0-.5-2.57.8-4.29Z"/>
        <path class="cls-3" d="m73.53,51.58c1.3-1.72,3.91-1.93,3.91-1.93,0,0,.5,2.57-.8,4.29-1.3,1.72-3.91,1.93-3.91,1.93,0,0-.5-2.57.8-4.29Z"/>
        <path class="cls-3" d="m59.04,11.19c1.05,1.88.2,4.36.2,4.36,0,0-2.56-.57-3.61-2.45-1.05-1.88-.2-4.36-.2-4.36,0,0,2.56.57,3.61,2.45Z"/>
        <path class="cls-3" d="m82.57,76.3c1.88,1.05,2.46,3.61,2.46,3.61,0,0-2.48.85-4.36-.2-1.88-1.05-2.46-3.61-2.46-3.61,0,0,2.48-.85,4.36.2Z"/>
        <path class="cls-3" d="m66.02,20.62c1.88,1.05,2.46,3.61,2.46,3.61,0,0-2.48.85-4.36-.2-1.88-1.05-2.46-3.61-2.46-3.61,0,0,2.48-.85,4.36.2Z"/>
        <path class="cls-1" d="m80.84,93.74c-1.96.89-4.36-.16-4.36-.16,0,0,.78-2.5,2.75-3.39s4.36.16,4.36.16c0,0-.78,2.5-2.75,3.39Z"/>
        <path class="cls-1" d="m19.08,64.95c-2-.8-2.89-3.27-2.89-3.27,0,0,2.35-1.16,4.35-.35,2,.8,2.89,3.27,2.89,3.27,0,0-2.35,1.16-4.35.35Z"/>
        <path class="cls-2" d="m97.66,84.16c-1.92-.97-2.6-3.5-2.6-3.5,0,0,2.44-.95,4.36.02,1.92.97,2.6,3.5,2.6,3.5,0,0-2.44.95-4.36-.02Z"/>
        <path class="cls-2" d="m95.85,73.92c-1.21,1.79-3.8,2.14-3.8,2.14,0,0-.64-2.54.57-4.33s3.8-2.14,3.8-2.14c0,0,.64,2.54-.57,4.33Z"/>
        <path class="cls-1" d="m2.38,57.08c-1.22-1.78-.6-4.32-.6-4.32,0,0,2.6.33,3.82,2.11s.6,4.32.6,4.32c0,0-2.6-.33-3.82-2.11Z"/>
        <path class="cls-1" d="m19.01,84.55c-1.25,1.76-3.85,2.05-3.85,2.05,0,0-.58-2.55.67-4.31,1.25-1.76,3.85-2.05,3.85-2.05,0,0,.58,2.55-.67,4.31Z"/>
        <path class="cls-1" d="m44.73,61.4c-1.32,1.7-3.93,1.89-3.93,1.89,0,0-.47-2.58.85-4.28,1.32-1.7,3.93-1.89,3.93-1.89,0,0,.47,2.58-.85,4.28Z"/>
        <path class="cls-1" d="m23.54,58.73c.51-2.09,2.82-3.33,2.82-3.33,0,0,1.48,2.16.97,4.25-.51,2.09-2.82,3.33-2.82,3.33,0,0-1.48-2.16-.97-4.25Z"/>
      </g>
    </g>
  </g>
</svg>