<?xml version="1.0" encoding="UTF-8"?>
<svg id="Calque_2" data-name="Calque 2" xmlns="http://www.w3.org/2000/svg" viewBox="0 0 86.17 41.67">
  <defs>
    <style>
      .cls-1 {
        fill: #9d9d9c;
        opacity: .5;
      }

      .cls-2 {
        fill: #3c3c3b;
      }

      .cls-3 {
        fill: #1d1d1b;
      }
    </style>
  </defs>
  <g id="Assets_mustafar" data-name="Assets mustafar">
    <g>
      <polygon class="cls-2" points="4.82 37.7 0 19.28 9.07 16.16 9.07 8.5 16.09 2.27 31.75 0 47.91 0 66.61 4.54 75.69 13.04 83.34 15.59 86.17 24.09 67.18 35.72 43.09 32.88 26.08 36.28 16.09 41.67 4.82 37.7"/>
      <polygon class="cls-3" points="43.09 24.38 50.17 19.28 45.07 15.31 53.57 19.84 43.09 24.38"/>
      <path class="cls-3" d="m33.17,28.91s.57-13.04,3.4-13.61h-1.49l-2.44,7.05.53,6.56Z"/>
      <path class="cls-1" d="m60.09,15.31l2.46-1.8-5.67-1.51s0-3.4-1.89-3.97-6.66-2.08-6.66-2.08l3.64,4.68s.94,1.94,1.61,2.31,6.52,2.36,6.52,2.36Z"/>
      <polygon class="cls-1" points="28.35 9.35 33.64 9.35 33.64 6.9 28.35 6.9 24.38 6.9 28.35 9.35"/>
    </g>
  </g>
</svg>