<?xml version="1.0" encoding="UTF-8"?>
<svg id="Calque_2" data-name="Calque 2" xmlns="http://www.w3.org/2000/svg" xmlns:xlink="http://www.w3.org/1999/xlink" viewBox="0 0 72.11 147.71">
  <defs>
    <style>
      .cls-1 {
        fill: url(#Dégradé_sans_nom_40);
      }
    </style>
    <linearGradient id="Dégradé_sans_nom_40" data-name="Dégradé sans nom 40" x1="7.79" y1="19.39" x2="79.2" y2="137.33" gradientUnits="userSpaceOnUse">
      <stop offset="0" stop-color="#c6c6c6" stop-opacity="0"/>
      <stop offset=".11" stop-color="#c6c6c6" stop-opacity=".1"/>
      <stop offset=".17" stop-color="#a4a4a4" stop-opacity=".29"/>
      <stop offset=".31" stop-color="#696968" stop-opacity=".64"/>
      <stop offset=".49" stop-color="#464645" stop-opacity=".84"/>
      <stop offset=".75" stop-color="#3c3c3b" stop-opacity=".9"/>
      <stop offset=".76" stop-color="#554034" stop-opacity=".91"/>
      <stop offset=".78" stop-color="#824828" stop-opacity=".94"/>
      <stop offset=".79" stop-color="#a74f1d" stop-opacity=".96"/>
      <stop offset=".81" stop-color="#c45416" stop-opacity=".98"/>
      <stop offset=".82" stop-color="#d95810" stop-opacity=".99"/>
      <stop offset=".84" stop-color="#e55a0d" stop-opacity=".99"/>
      <stop offset=".85" stop-color="#ea5b0c" stop-opacity="1"/>
      <stop offset=".85" stop-color="#e9560c" stop-opacity="1"/>
      <stop offset=".88" stop-color="#e7390e" stop-opacity="1"/>
      <stop offset=".9" stop-color="#e52210" stop-opacity="1"/>
      <stop offset=".93" stop-color="#e41211" stop-opacity="1"/>
      <stop offset=".96" stop-color="#e30912" stop-opacity="1"/>
      <stop offset="1" stop-color="#e30613"/>
    </linearGradient>
  </defs>
  <g id="Assets_mustafar" data-name="Assets mustafar">
    <path class="cls-1" d="m72.11,146.36s-1.13-9.45-3.02-9.45,3.78-1.51,1.51-7.56-6.43-7.18-6.43-7.18c0,0,1.51-10.96-1.89-14.36s-5.29-4.91-6.8-9.83-9.07-10.96-5.67-14.36,1.51-6.8,4.91-12.47,6.05-12.47-.76-6.8-9.45,7.18-10.96.76-3.4-3.78,0-13.98,2.27-18.48,0-15.85-1.13,11.7-4.91,12.07-13.61,11.72-7.94-4.54,3.4-9.07,2.27-23.24S27.51-3.01,22.22,1-.83,5.75,5.22,14.07s3.95,10.25-1.24,21.19-5.94,25.68,1.62,28.33,10.96-3.4,13.23,4.91,2.27,10.96,4.91,17.76,9.07,3.02,9.45,6.8,0,7.56,6.43,10.2,14.74,8.69,11.72,10.2-4.16,6.43-.38,9.45,4.54,0,7.94,9.07c3.4,9.07,3.4,11.34,7.94,14.36s5.29,0,5.29,0Z"/>
  </g>
</svg>