<?xml version="1.0" encoding="UTF-8"?>
<svg id="Calque_2" data-name="Calque 2" xmlns="http://www.w3.org/2000/svg" viewBox="0 0 377.47 303.78">
  <defs>
    <style>
      .cls-1 {
        fill: #575756;
      }

      .cls-2 {
        fill: #b2b2b2;
      }

      .cls-3 {
        stroke: #575756;
      }

      .cls-3, .cls-4, .cls-5, .cls-6 {
        fill: none;
      }

      .cls-3, .cls-4, .cls-6 {
        stroke-linecap: round;
      }

      .cls-3, .cls-5, .cls-6 {
        stroke-miterlimit: 10;
      }

      .cls-7 {
        fill: #9d9d9c;
      }

      .cls-4 {
        stroke-linejoin: round;
      }

      .cls-4, .cls-5, .cls-6 {
        stroke: #3c3c3b;
      }

      .cls-4, .cls-6 {
        stroke-width: .5px;
      }

      .cls-5 {
        stroke-width: .75px;
      }

      .cls-8 {
        fill: #706f6f;
      }

      .cls-9 {
        fill: #878787;
      }
    </style>
  </defs>
  <g id="CoruscantBase">
    <g>
      <path class="cls-1" d="m108.44,176.02c1.18-13.18-5.43-11.76-5.43-11.76.94-3.21-.63-3.77-.63-3.77.69-.43.08-1.32.08-1.32-1.3-.38-2.51-.64-3.64-.82l-.27-19.23s-1.12,14.29-1.46,19.02c-1.1-.1-2.09-.11-2.96-.07l-.67-10.3s-.66,7.62-.88,10.43c-1.67.2-2.69.54-2.97.57-.67.06-.11,1.84-.11,1.84,0,0-1.36-.17-2.05.26-.69.43-.16,2.83-.16,2.83-4.13.5-4.01,7.15-4.01,7.15l.26,127.17,25.93-.23-1.03-121.75Z"/>
      <path class="cls-9" d="m95.19,164.8s2.55.95,3.69,6.05,2.68,127,2.68,127l3.53-.03-3.8-127.25s-.99-8.6-6.09-5.76Z"/>
      <path class="cls-2" d="m108.54,169.61s-.88-7.5-5.48-5.57c.19-.43.42-1.35.37-2.5-.07-1.72-1.1-1.27-1.1-1.27.57,1.07.56,3.02.53,3.74-.14.06-.28.13-.42.21,0,0,2.55.57,3.68,5.67s2.69,127.88,2.69,127.88h3.03s-3.31-128.16-3.31-128.16Z"/>
      <path class="cls-6" d="m87.28,163.68c5.55,1.27,11.2.85,15.54.39"/>
      <path class="cls-6" d="m89.35,160c3.96,1.07,9.46.83,13.02.48"/>
    </g>
    <g>
      <path class="cls-1" d="m124.99,205.02s4.9-4.32,10.02-4.96h5.46s7.44,2.13,8.49,4.39l-2.75,1.77-.17.92h1.98l-.4,3.4h-.99l-.09,6.73c-.18,6.23,1.42,14.24,3.42,17.72l.93,9.92s2.35-.43,1.62,2.41c-.74,2.83,6.09,48.76,5.48,50.07h-39.02c-.17.42.1-40,3.45-49.11-.05-1.79,1.08-2.03,1.73-1.74l1.14-10.96s-.2-2.36,2.54-2.36l.77-22.02-2.07-.19.29-3.02,2.17.09-.04-1.51-3.94-1.56Z"/>
      <path class="cls-7" d="m138.75,203.83l3.11-3.34s6.43,2.21,7.1,3.95l-10.21-.61Z"/>
      <polygon class="cls-7" points="144.16 209.98 148.02 207.14 147.61 210.54 143.63 210.54 144.16 209.98"/>
      <path class="cls-7" d="m141.62,216.71s2.85-3.47,4.96-3.69c0,0-.31,15.41,3.36,21.97l-12.76.54s-1.7-2.31,5.26-3.73l-.82-15.09Z"/>
      <path class="cls-7" d="m139.71,246.8c3.9-.13,7.63-.75,11.17-1.89,0,0,.19-9.5-.94-9.64s-6.18.39-3.56,3.65c0,0,.95,3.19-.02,4.5s-4.19,1.28-4.19,1.28c0,0-3.29.51-2.46,2.1Z"/>
      <path class="cls-7" d="m145.9,250.19l6.58-.92.02-1.95s-4.67.53-6.6,2.87Z"/>
      <path class="cls-7" d="m146.88,252.81l-.08,7.48h5.63l.97,6.7h-5.24s-1.72,8.65-.29,12.37l8.11-.24-3.21-26.3h-5.89Z"/>
      <polygon class="cls-7" points="147.63 283.25 156.44 282.67 157.97 296.06 147.18 296.06 147.63 283.25"/>
      <path class="cls-4" d="m125.42,205.02c10.95-1.68,13.68-1.55,23.13-.57"/>
      <path class="cls-4" d="m126.87,208.13c10.5.34,11.1,1,21.06-.87"/>
      <path class="cls-4" d="m126.67,211.08c10.5.34,11.1,1,21.06-.87"/>
      <path class="cls-4" d="m125.57,234.99c8.29.63,16.46.82,24.38,0"/>
      <path class="cls-4" d="m124.41,246.43c8.29.63,19.81,1.03,26.64-1.53"/>
      <path class="cls-4" d="m122.21,249.8c9.33,1.56,23.82.83,30.27-.53"/>
      <line class="cls-4" x1="155.95" y1="280.13" x2="119.74" y2="280.27"/>
    </g>
    <g>
      <path class="cls-1" d="m67.61,126.07s-.94-42.9-24.94-61.98c0,0,3.02-24.47-7.8-62.1,0,0-2.2-4.46-6.31,0-4.11,4.46-13.89,37.91-11.27,73.63-6.18,6.93-14.32,92.09-8.43,121.18l.04,20.52c-4.65,2-6.07,11.23-6.07,11.23-4.11,4.54-2.55,73.1-2.55,73.1h72.43l-5.1-175.58Z"/>
      <path class="cls-9" d="m19.71,82.2s15.8,33.38,14.1,43.37-5.88,9.07-3.9,33.87l-14.81,31.18s-3.12-107.86,4.61-108.43Z"/>
      <path class="cls-9" d="m29.76,160.99c5.67,5.12,7.91,12.73,9.58,20.07l5.83.9.76,56.36,10.13-21.05s7.02,4.54,5.31,27.85l-.14,1.13h2.98l1.56,55.39,2.62-.39-1.84-68.39s-.64-15.38-9.35-18.6l-1.06-34.33s-11.83-38.65-26.37-18.94Z"/>
      <path class="cls-1" d="m62.34,243.96c0-1.66.73-4.59,1.71-4.59s1.88,2.86,1.88,4.51-.9,1.49-1.88,1.49-1.71.25-1.71-1.41Z"/>
      <g>
        <line class="cls-4" x1="8.91" y1="217.32" x2="9.08" y2="301.65"/>
        <path class="cls-4" d="m18.01,301.65c-.22-37.53-3.8-87.14,6.34-87.38"/>
        <path class="cls-4" d="m38.27,155.27c-13.45-.04-14.57,27.51-13.93,59"/>
        <path class="cls-4" d="m28.63,64.05c5.87,1.67,9.56,55.22,9.65,91.22"/>
        <path class="cls-4" d="m28.63,64.05c-6.68-2.96-9.73,5.22-11.33,11.57"/>
      </g>
      <path class="cls-9" d="m38.77,122.6S40.32,2.74,30.37.49c0,0,2.59-1.69,4.51,1.5s11.41,45.9,7.8,62.1c3.19-.04,23.46,20.6,24.75,58.51l5.3,179.05h-2.76s-1.56-80.05-1.56-80.05l-1.13-50.81c-.07.59-2.57-54.47-7.44-70.8,0,0-8.79-30.54-20.2-32.95l.21,51.17-1.06,4.39Z"/>
    </g>
    <g>
      <path class="cls-1" d="m168.31,157.54l4.96-.39s.02-1.63,0-1.63.73,0,.73,0l.16-6.17,1.12-1.9s2.57,1.58,2.41,7.23l1.33-.02v1.61s5.67.19,6.48-1.1l.12-6.15s1.56.37,1.28,5.86l.03,5.97s-1.42-4.13-1.77-3.88l-.83.02s1.2,1.74,1.26,2.94,6.24,141.13,6.24,141.13h-23.67l-1.75-98.47h1.98l-1.32-41.86s-.3-1.61,1.27-1.58l-.03-1.63Z"/>
      <path class="cls-4" d="m166.63,202.76c3.05.17,6.31-.04,9.69-.47"/>
      <line class="cls-4" x1="176.79" y1="219.91" x2="176.32" y2="202.28"/>
      <path class="cls-8" d="m174.24,220.15c-.33-.47,2.59-.97,4.86-.53,2,.39,3.5,81.46,3.5,81.46h-.85l-3.09-80.72-4.41-.21"/>
      <path class="cls-9" d="m191.82,301.09l-6.29-141.51s-.09-1.99-1.37-2.59l6.06,144.1h1.59Z"/>
      <line class="cls-4" x1="175.14" y1="300.85" x2="174.24" y2="220.15"/>
    </g>
    <g>
      <path class="cls-1" d="m205.74,300.17c0-2.95-1.42-57.94-1.42-57.94,0,0,1.13-8.5,5.67-9.35,0,0-7.94-82.73,7.37-99.9l-.6-24.43s-.74-.67.25-1.17v-1.36s-.65-.85.09-1.45c0,0,2.29-20.12,7.96-23.29,2.89-1.89,8.15,10.68,9.5,23.01l.94,27.4c2.26.64,19.48,11.91,17.2,104.5,2.85.98,4.42,22.7,2.46,63.98h-49.42Z"/>
      <path class="cls-7" d="m233.55,230.34s4.81,8.31,4.81,17.95l1.36,51.88h10.33s-2.27-40.03-2.74-67.58c-.42-24.43,1.52-36.27-6.31-43.15-1.46-1.29-3.59-1.58-5.34-.73-2.15,1.05-4,4.27-2.12,41.63Z"/>
      <path class="cls-9" d="m225.01,82.17s5.95,5.01,9.07,25.04c0,0,1.8-17.48-8.22-26.13,0,0-1.78.05-.85,1.09Z"/>
      <path class="cls-9" d="m225.72,128.85c-.09.11,3.12,114.94,3.12,114.94l3.26-8.36s-1.28-6.09,1.7-4.68c0,0-4.11-43.37,2.98-40.82,0,0-3.83-69.45-11.06-61.09Z"/>
      <path class="cls-9" d="m235.44,131.5l1.28,58.25s10.86-5.3,10.58,41.62c0,0,2.44.6,5,4.35,3.46,5.07,3.33-97.85-16.86-104.22Z"/>
      <path class="cls-4" d="m233.68,230.57c-.93-17.17-2.29-40.64,3.1-40.64"/>
      <line class="cls-4" x1="235.5" y1="131.69" x2="236.78" y2="189.94"/>
    </g>
    <g>
      <path class="cls-1" d="m290.69,133.84s.43-.6,2.66-.39c0,0,2.87-28.62,2.52-30.34,0,0-.05,29.57.69,30.17s1.96.09,1.96.09l3.38-60.35s-3.17,51.99.47,61.89c0,0,1.11-.12,1.02,1.65s0,16.28,0,16.28c0,0,5.45,7.37,3.4,36.07,0,0,10.7,9.92,6.59,29.98l.99,80.05h-31.32l1.7-138.44s1.04-6.33,5.53-8.69l.43-17.95Z"/>
      <path class="cls-9" d="m293.24,207.62l1.98-50.24s.43-5.39,3.47-3.05,4.68,4.82,5.53,12.05-.35,132.52-.35,132.52l10.49.04-.86-80.73s-.91-5.69-4.95-8.53c0,0,.34-8.36-1.84-10.06l1.28-7.37-1.2-3.33s3.06-32.24-3.4-36.07v-16.28s.12-1.43-.87-1.65-1.8-15.03-1.8-15.03l-.81,13.89s-3.52.04-3.35-.5-.42-5.14-.42-5.14c0,0-1.4,2.02-2.11,5.07s-4.75,80.01-4.75,80.01l-1.13,85.72h4.54l.57-91.32Z"/>
    </g>
    <g>
      <path class="cls-1" d="m338.82,154.96l-1.32,3.02-.47,15.78s9.45,6.05,10.02,11.34-.38,118.41-.38,118.41h30.8l-1.89-142.41s-9.64-14.93-26.08-12.66c0,0-6.43,1.89-10.68,6.52Z"/>
      <path class="cls-7" d="m340.06,155.1l.15-1.51s10.77-11.54,24.69-2.29c1.85.71,9.23,5.56,10.98,10.13,2,5.21,1.41,142.22,1.41,142.22h-10.96l-.57-125.21s-12.97-12.52-19.28-11.46l-6.43-11.88Z"/>
      <line class="cls-3" x1="339.63" y1="140.83" x2="339.81" y2="157.98"/>
      <path class="cls-2" d="m340.24,155.45c.8.09.47,7.04.47,7.04,0,0,2.83-3.07,2.17-3.87s-1.46-.94-1.46-.94l-.14-2.69-1.04.47Z"/>
      <line class="cls-5" x1="352.33" y1="169.75" x2="352.9" y2="303.33"/>
      <line class="cls-5" x1="354.88" y1="169.59" x2="356.16" y2="303.51"/>
      <line class="cls-5" x1="370.55" y1="170.01" x2="371.11" y2="303.6"/>
      <line class="cls-5" x1="373.55" y1="169.86" x2="374.37" y2="303.78"/>
      <path class="cls-5" d="m354.9,171.59c-.44-17.1,15.93-15.61,15.65-1.58"/>
      <path class="cls-5" d="m352.33,169.75c-.19-19.61,21.97-18.38,21.21.25"/>
    </g>
  </g>
</svg>