<?xml version="1.0" encoding="UTF-8"?>
<svg id="Calque_2" data-name="Calque 2" xmlns="http://www.w3.org/2000/svg" viewBox="0 0 563.07 294.3">
  <defs>
    <style>
      .cls-1 {
        fill: #575756;
      }

      .cls-2 {
        fill: #878787;
      }

      .cls-2, .cls-3, .cls-4, .cls-5 {
        stroke: #3c3c3b;
      }

      .cls-2, .cls-4, .cls-5 {
        stroke-linecap: round;
        stroke-linejoin: round;
      }

      .cls-6, .cls-5 {
        fill: #3c3c3b;
      }

      .cls-3 {
        fill: #706f6f;
        stroke-miterlimit: 10;
      }

      .cls-4 {
        fill: none;
      }

      .cls-7 {
        fill: #1d1d1b;
        opacity: .35;
      }
    </style>
  </defs>
  <g id="Senat">
    <path class="cls-2" d="m329.9,84.24c-28.25-3.78-58.27-3.27-89.44,0C129.75,92.48,30.41,130.22.5,180.53c27.28,33.13,117.12,35.91,117.12,35.91l1.29,5.16c-4.17,4.23-.11,7.52,19.36,9.03v23.49l10.07,8v27.1l76.41,4.13h113.84l77.18-7.49-.26-24.01,11.36-5.68-1.29-26.59c12.12.3,26.32-1.9,20.3-9.99l3.96-3.4c30.46,1.03,89.83-11.68,112.51-37.85-55.28-58.75-142.58-87.25-232.44-94.12Z"/>
    <path class="cls-5" d="m113.8,156.15l20.22-3.06c-1.04-9.31,2.98-18.25,10.5-26.93,96.27-8.22,187.68-9.29,271.9.17,7.15,7.94,9.73,16.54,8.95,25.6l24.62,2.19-10.54-29.59c-96.41-15.32-204.61-19.59-316.54.92l-9.11,30.69Z"/>
    <g>
      <line class="cls-4" x1="472.52" y1="151.94" x2="438.83" y2="123.93"/>
      <path class="cls-4" d="m562.57,178.3c-18.96-13.92-53.19-20.75-90.06-26.36"/>
      <path class="cls-4" d="m449.99,154.13c-1.93-8.79-6.21-19.26-11.16-30.2"/>
      <line class="cls-4" x1="89.66" y1="153.1" x2="124.34" y2="124.27"/>
      <path class="cls-4" d="m1.21,180.32c18.96-13.92,51.59-21.61,88.45-27.22"/>
      <path class="cls-4" d="m113.8,156.15c1.93-8.79,5.59-20.94,10.54-31.88"/>
    </g>
    <path class="cls-7" d="m224.45,294.3h115l76.15-6.94.08-24.8,11.05-5.81-1.16-26.48s28.32.77,20.3-9.99l3.74-3.62c7.1,4.37,79.01-2.21,112.16-37.69.31-2-37.49-18.23-96.54-21.72l-39.69-4.07c-28.06,1.61-164.06-10.94-295.27,1.9l-.91,26.75,10.71,16.23,64.47,14.37-.02,21.44,6.42,20.53,6.56,2.26,6.95,37.61Z"/>
    <path class="cls-1" d="m119.39,139.68c-.52-.44,4.65-139.68,4.65-139.68h7.74l-1.05,140.85-11.34-1.18Z"/>
    <polygon class="cls-1" points="430.86 138.79 428.61 .12 437.35 .25 442.71 138.96 430.86 138.79"/>
    <path class="cls-4" d="m115.82,209.89c-49.7-10.74-44.11-21.84,1.12-32.14"/>
    <path class="cls-3" d="m117.49,139.73s-4.56-4.99,13.34-1.89l-1.72,50.85s-11.79-.95-13.94,1.12c0,0-.69-2.24.52-2.32l1.81-47.75Z"/>
    <path class="cls-3" d="m443.69,139.51s4.8-4.76-13.23-2.56l-.83,50.87s11.82-.35,13.87,1.82c0,0,.8-2.2-.4-2.35l.59-47.79Z"/>
    <path class="cls-1" d="m206.55,168.84s139.91-7.23,152.47-.34l-.86,11.2h-8.78l-9.12,12.89-3.96-14.28-9.98.17-9.12,13.77-5.25-13.85-11.58-.1-7.1,13.55-6.1-13.78-11.23-.1s-5.55,12.91-5.71,13-7.94-12.49-7.94-12.49l-11.97-.26-3.94,13.52-8.91-12.91-10.42.35-3.68,13.07-9.45-12.39-7.5-.11.12-10.93Z"/>
    <line class="cls-4" x1="115.82" y1="209.89" x2="119.14" y2="221.53"/>
    <line class="cls-4" x1="115.6" y1="209.82" x2="108.65" y2="199.62"/>
    <line class="cls-4" x1="449.96" y1="208.72" x2="458" y2="199.18"/>
    <path class="cls-4" d="m449.96,208.72c49.7-10.74,49.08-24.77-6.42-30.52"/>
    <line class="cls-4" x1="449.8" y1="216.21" x2="449.96" y2="208.72"/>
    <line class="cls-4" x1="201.99" y1="255.23" x2="210.68" y2="254.03"/>
    <g>
      <line class="cls-4" x1="217.31" y1="256.18" x2="224.09" y2="293.33"/>
      <line class="cls-4" x1="215.33" y1="293.36" x2="206.98" y2="258.16"/>
      <line class="cls-4" x1="204.36" y1="255.17" x2="204.83" y2="258.05"/>
      <line class="cls-4" x1="206.98" y1="258.16" x2="204.83" y2="258.05"/>
      <line class="cls-4" x1="201.48" y1="255.13" x2="194.76" y2="234.09"/>
      <line class="cls-4" x1="204.6" y1="212.08" x2="204.25" y2="233.38"/>
      <line class="cls-4" x1="210.68" y1="254.03" x2="204.25" y2="233.38"/>
      <line class="cls-4" x1="217.31" y1="256.18" x2="210.68" y2="254.03"/>
      <line class="cls-4" x1="194.76" y1="234.09" x2="195.69" y2="210.1"/>
      <line class="cls-4" x1="204.6" y1="212.08" x2="139.78" y2="197.63"/>
      <line class="cls-7" x1="130.83" y1="181.62" x2="139.78" y2="197.63"/>
    </g>
    <g>
      <line class="cls-4" x1="346.46" y1="255.22" x2="339.68" y2="292.37"/>
      <line class="cls-4" x1="348.44" y1="292.4" x2="356.79" y2="257.2"/>
      <line class="cls-4" x1="359.4" y1="254.22" x2="358.94" y2="257.09"/>
      <line class="cls-4" x1="356.79" y1="257.2" x2="358.94" y2="257.09"/>
      <line class="cls-4" x1="362.29" y1="254.17" x2="369" y2="233.13"/>
      <line class="cls-4" x1="359.17" y1="211.12" x2="359.52" y2="232.42"/>
      <line class="cls-4" x1="353.09" y1="253.07" x2="359.52" y2="232.42"/>
      <line class="cls-4" x1="346.46" y1="255.22" x2="353.09" y2="253.07"/>
      <line class="cls-4" x1="369" y1="233.13" x2="368.07" y2="209.06"/>
      <line class="cls-4" x1="359.17" y1="211.12" x2="422.25" y2="196.53"/>
      <line class="cls-4" x1="429.63" y1="178.91" x2="422.25" y2="196.53"/>
    </g>
    <path class="cls-6" d="m222.11,215.31h120.47c.73,0,1.35.51,1.49,1.22.79,3.94,2.78,17.08-1.35,34.02-.17.68-.78,1.16-1.48,1.16h-119.64c-.69,0-1.3-.47-1.47-1.14-1.35-5.24-6.4-27.11.91-34.82.28-.29.68-.44,1.08-.44Z"/>
    <path class="cls-4" d="m205.91,193.88c53.24-2.94,104.16-3.25,151.95,0"/>
    <path class="cls-4" d="m204.6,212.08c42.13,3.08,103.77,1.47,154.57-.96"/>
    <line class="cls-4" x1="204.6" y1="193.5" x2="206.55" y2="168.84"/>
    <line class="cls-4" x1="359.02" y1="168.5" x2="357.86" y2="193.88"/>
    <line class="cls-4" x1="400.24" y1="153.1" x2="425.36" y2="151.94"/>
    <line class="cls-4" x1="359.02" y1="168.5" x2="400.24" y2="153.1"/>
    <line class="cls-4" x1="206.55" y1="168.84" x2="141.76" y2="153.1"/>
    <line class="cls-4" x1="130.28" y1="154.06" x2="141.76" y2="153.1"/>
    <path class="cls-4" d="m400.24,153.1c-86.62-5.08-171.86-6.97-258.48,0"/>
    <line class="cls-4" x1="353.09" y1="253.07" x2="362.29" y2="254.17"/>
    <path class="cls-4" d="m129.11,188.69c-9.77-.21-19.51,1.16-20.46,10.93"/>
    <path class="cls-4" d="m429.63,187.83c17.85,1.82,25.33,4.96,28.37,11.35"/>
    <path class="cls-6" d="m139.18,254.2c4.35-2.63,63.32-2.22,61.69-.96l-6.8-19.17,1.15-17.21c-31.76,2.23-57.23,4.93-56.32,10.65l.27,26.7Z"/>
    <path class="cls-6" d="m425.41,255.04c-4.35-2.63-64.64-2.22-63.01-.96l6.7-21.13-.75-15.23c31.76,2.23,56.93,4.9,56.02,10.63l1.05,26.7Z"/>
  </g>
</svg>