<?xml version="1.0" encoding="UTF-8"?>
<svg id="Calque_2" data-name="Calque 2" xmlns="http://www.w3.org/2000/svg" viewBox="0 0 414.65 355.68">
  <defs>
    <style>
      .cls-1, .cls-2, .cls-3, .cls-4, .cls-5, .cls-6, .cls-7, .cls-8, .cls-9 {
        stroke: #3c3c3b;
      }

      .cls-1, .cls-3, .cls-6, .cls-7, .cls-8 {
        stroke-miterlimit: 10;
      }

      .cls-1, .cls-10 {
        fill: #3c3c3b;
      }

      .cls-2 {
        stroke-width: .75px;
      }

      .cls-2, .cls-3, .cls-4, .cls-7, .cls-9 {
        fill: #878787;
      }

      .cls-2, .cls-4, .cls-5, .cls-9 {
        stroke-linejoin: round;
      }

      .cls-11, .cls-12 {
        fill: #f6f6f6;
      }

      .cls-3, .cls-5, .cls-6, .cls-8, .cls-9 {
        stroke-width: .5px;
      }

      .cls-13 {
        fill: #9d9d9c;
      }

      .cls-12, .cls-14 {
        opacity: .35;
      }

      .cls-5, .cls-8 {
        fill: none;
      }

      .cls-5, .cls-8, .cls-9 {
        stroke-linecap: round;
      }

      .cls-6 {
        fill: #706f6f;
      }

      .cls-15 {
        opacity: .4;
      }

      .cls-15, .cls-14 {
        fill: #1d1d1b;
      }
    </style>
  </defs>
  <g id="JediTemple">
    <g id="jediTempleShape">
      <g>
        <path class="cls-3" d="m410.24,229.06v-5.86l-5.1-1.13,1.7-78.8-67.84-.76v3.03l-26.46.38s4.06-85.05-5.58-86.79c-.16-.91-.24-2.02-.28-2.96-.04.95-.11,2.06-.23,2.95-8.88,1.26-7.72,86.25-7.72,86.25-1.27-1.32-2.97-2.1-5.29-2.09,0,0,4.63-91.72-6.38-93.54-.23-.98-.34-2.37-.39-3.51-.05,1.15-.15,2.55-.3,3.49,0,0,0,0,0,0-11.55,1.79-4.26,91.6-9.14,95.46l-1.72-7.58-25.42-.43c1.84-23.43-2.69-28.77-2.69-28.77.49-20.82-4.59-84.97-4.91-89.29-.4-5.39,5.06-3.97,5.06-3.97l.14-6.05h-6.76s-.71-8.46-3.54-8.83-3.45,8.83-3.45,8.83h-6.52l-.09,6.61c5.2-.92,5.17,2.99,5.17,2.99l-4.79,89.42c-4.72.76-4.16,29.48-4.16,29.48l-15.31.57v-1.7h-7.56c.11,4.17-.33,5.49-1.13,4.91,0,0,2.36-79.54-5.22-81.42-.27-.98-.4-2.5-.45-3.73-.05,1.31-.18,2.93-.37,3.85-7.11,3.74-4.73,81.49-4.73,81.49-2.8-.74-1.23,2.65-24.38,1.7,0,0,2.1-89.12-6.51-92.22-.27-.98-.4-2.5-.45-3.73-.05,1.23-.16,2.75-.34,3.69-.09.02-.17.03-.26.07-9.83,3.97-5.78,93.9-5.78,93.9-1.22-.9-3.47-.89-4.62,0l-5.67-5.1h-64.82v30.61l-37.23,68.41-34.2,11.91-.94,10.2h5.1L.35,283.87l405.54,20.98,8.5-61.8-4.16-13.98Z"/>
        <path class="cls-3" d="m193.86,54.25s-.04.87,0,1.98c.05-1.1.04-1.98,0-1.98Z"/>
        <path class="cls-3" d="m157.42,45.34s-.04.87,0,1.98c.05-1.1.04-1.98,0-1.98Z"/>
        <path class="cls-3" d="m286.68,44.25s-.04.87,0,1.98c.05-1.1.04-1.98,0-1.98Z"/>
        <path class="cls-3" d="m306.68,54.18s-.04.87,0,1.98c.05-1.1.04-1.98,0-1.98Z"/>
      </g>
      <g>
        <polygon class="cls-14" points="339.34 142.72 339.33 145.75 339.34 145.75 339.34 142.72"/>
        <path class="cls-14" d="m307.31,59.33c-.16-.91-.24-2.02-.28-2.96-.04.95-.11,2.06-.23,2.95-8.88,1.26-7.72,86.25-7.72,86.25-1.27-1.32-2.97-2.1-5.29-2.09,0,0,4.63-91.72-6.38-93.54-.23-.98-.34-2.37-.39-3.51-.05,1.15-.15,2.55-.3,3.49,0,0,0,0,0,0-11.55,1.79-4.26,91.6-9.14,95.46l-1.72-7.58-25.42-.43c1.84-23.43-2.69-28.77-2.69-28.77.49-20.82-4.59-84.97-4.91-89.29-.4-5.39,5.06-3.97,5.06-3.97l.14-6.05h-6.76s-.71-8.46-3.54-8.83-3.45,8.83-3.45,8.83h-6.52l-.09,6.61c5.2-.92,5.17,2.99,5.17,2.99l-4.79,89.42c-4.72.76-4.16,29.48-4.16,29.48l-15.31.57v-1.7h-7.56c.11,4.17-.33,5.49-1.13,4.91,0,0,2.36-79.54-5.22-81.42-.27-.98-.4-2.5-.45-3.73-.05,1.31-.18,2.93-.37,3.85-7.11,3.74-4.73,81.49-4.73,81.49-2.8-.74-1.23,2.65-24.38,1.7,0,0,2.1-89.12-6.51-92.22-.27-.98-.4-2.5-.45-3.73-.05,1.23-.16,2.75-.34,3.69-.09.02-.17.03-.26.07-9.83,3.97-5.87,94.03-5.87,94.03v.02c-1.52-1.29-3.74-1.17-4.88-.17l-5.68-5.29h-64.82v4.16l25.84.43s5.45,5.74,5.59,5.74h43.97v.13s163.11,2.67,163.11,2.67l15.36-.11-.3-4.49,9.84.41v-3.06s-26.44.38-26.44.38c0,0,4.06-85.05-5.58-86.79Z"/>
      </g>
    </g>
    <polygon class="cls-6" points="181.41 293.13 181.38 267.5 199.56 267.95 199.56 293.93 206.1 294.51 207.14 269.48 175.4 268.2 175.4 292.8 181.41 293.13"/>
    <polygon class="cls-9" points="5.07 250.61 395.88 268.75 410.24 223.21 410.24 229.06 396.56 277.06 5.07 261.38 5.07 250.61"/>
    <polygon class="cls-7" points="34.74 247.77 174.4 252.69 174.4 161.98 81.7 161.98 34.74 247.77"/>
    <polygon class="cls-7" points="216.17 255.8 374.81 262.61 384.44 237.38 347.59 159.71 340.51 165.38 215.22 161.98 216.17 255.8"/>
    <polygon class="cls-1" points="81.85 154.47 81.85 159.99 92.62 159.99 79.58 249.85 87.52 249.85 100.27 160.99 140.67 161.27 128.48 252.54 138.68 253.54 149.31 161.27 162.78 161.13 162.21 153 81.85 154.47"/>
    <path class="cls-4" d="m158.13,338.86c1.28,11.41-12.15,17.01-26.21,16.25s-28.04-2.29-24.21-16.75c1.2,11.13,45.83,11.3,50.42.5Z"/>
    <path class="cls-2" d="m153.24,332.61l46.65-38.25-18.47-1.23-48.3,35.92c-12.99.21-25.4,5.29-25.4,9.96s13.01,7.42,26.53,7.42,24.47-3.89,24.47-8.69c0-2.06-2.02-3.95-5.47-5.12Z"/>
    <g>
      <polygon class="cls-1" points="14.83 283.98 16.32 264.88 14.81 262.61 12.07 262.61 10.46 265.25 8.71 283.87 14.83 283.98"/>
      <polygon class="cls-1" points="42.94 285.53 44.29 265.73 42.78 263.46 40.04 263.46 38.43 266.1 37.39 285.1 42.94 285.53"/>
      <polygon class="cls-1" points="72.88 286.95 74.33 266.39 72.82 264.12 70.08 264.12 68.48 266.77 67.39 286.63 72.88 286.95"/>
      <polygon class="cls-1" points="103.32 288.68 104.95 267.85 103.44 265.58 100.7 265.58 99.09 268.23 97.98 288.44 103.32 288.68"/>
      <polygon class="cls-1" points="134.37 290.24 136.04 268.89 134.52 266.62 131.78 266.62 130.18 269.27 129.14 289.96 134.37 290.24"/>
      <polygon class="cls-1" points="165.47 291.76 167.41 270.21 165.89 267.95 163.15 267.95 161.55 270.59 160.4 291.48 165.47 291.76"/>
      <polygon class="cls-1" points="220.13 294.97 221.64 273.02 220.13 270.45 217.39 270.45 215.78 273.45 214.74 294.97 220.13 294.97"/>
      <polygon class="cls-1" points="253.67 296.2 255.19 274.25 253.67 271.68 250.93 271.68 249.33 274.68 248.29 296.2 253.67 296.2"/>
      <polygon class="cls-1" points="287.41 297.99 288.92 276.04 287.41 273.47 284.67 273.47 283.06 276.47 282.02 297.99 287.41 297.99"/>
      <polygon class="cls-1" points="322.07 300.11 323.69 277.08 322.18 274.51 319.44 274.51 317.83 277.51 316.75 299.81 322.07 300.11"/>
      <polygon class="cls-1" points="357.68 301.81 359.31 278.12 357.8 275.55 355.06 275.55 353.45 278.55 352.34 301.58 357.68 301.81"/>
    </g>
    <path class="cls-1" d="m255.19,258.5h10.49l6.66-95.67,43.94,1.28-5.39,96.31h9.07l5.53-96.16s14.46-.28,14.46.14,36.71,88.44,36.71,88.44l.85-2.55-35.72-86.6,5.1-3.12-.14-6.66-8.08,3.69-88.87-1.98v7.94l12.61-.57-7.23,95.53Z"/>
    <line class="cls-8" x1="75.94" y1="170.48" x2="82.02" y2="159.99"/>
    <line class="cls-8" x1="346.89" y1="160.56" x2="381.61" y2="242.98"/>
    <line class="cls-8" x1="249.8" y1="163.54" x2="243.92" y2="222.14"/>
    <g>
      <line class="cls-8" x1="372.16" y1="148.61" x2="371.02" y2="217.85"/>
      <line class="cls-8" x1="329.52" y1="152.55" x2="329.45" y2="148.51"/>
      <line class="cls-8" x1="372.16" y1="148.61" x2="329.45" y2="148.51"/>
    </g>
    <polyline class="cls-13" points="347.03 153.18 257.24 151.91 250.36 155.43 338.85 157.77 347.03 153.18"/>
    <polyline class="cls-13" points="174.5 150.2 91.22 150.2 84.89 153.81 166.99 154.9 174.5 150.2"/>
    <line class="cls-5" x1="396.56" y1="277.06" x2="405.89" y2="304.84"/>
    <polygon class="cls-1" points="392.4 303.32 394.03 279.63 392.52 277.06 389.78 277.06 388.17 280.06 387.06 303.09 392.4 303.32"/>
  </g>
  <g id="jediTempleDetails">
    <ellipse class="cls-10" cx="132.15" cy="337.78" rx="2.94" ry="9.96" transform="translate(-209.59 459.34) rotate(-88.21)"/>
    <polygon class="cls-10" points="181.91 256.8 201.04 256.8 199.34 148.37 181.91 148.37 181.91 256.8"/>
    <path class="cls-7" d="m157.39,220.66l1.64-69.45h15.37s-4.18-6.07-.99-6.99h49.75s4.72,4.72-5.67,7.18h26.08s0,70.68,0,70.68h-28.35l1,38.34-19.52-.91-.19-111.32h-11.91l-.6,110.73-9.6-.45v-97.44,59.92l-17.01-.3Z"/>
  </g>
  <g id="Ombres">
    <polygon class="cls-15" points="157.39 220.66 174.4 168.5 173.98 220.96 157.39 220.66"/>
    <polygon class="cls-14" points="207.57 260.01 207.14 181.54 216.17 156.59 243.56 222.07 215.22 222.07 216.22 260.41 207.57 260.01"/>
    <polygon class="cls-14" points="339.24 142.75 339.33 148.81 329.69 148.77 329.79 152.89 338.69 153.02 347.09 152.95 346.93 161.03 381.99 243.52 375.28 262.89 397.01 263.74 404.76 239.27 406.93 143.27 339.24 142.75"/>
    <polyline class="cls-12" points="39.3 239.34 33.11 248.03 85.15 254.13 4.51 250.8 39.3 239.34"/>
    <path class="cls-11" d="m190.03,289.91c-.93-1.73.29-17.96.8-17.98.49-.02.96,15.21-.25,17.75-.03.07-.32.66-.55.23Z"/>
    <g>
      <path class="cls-11" d="m32.8,271.24h2.27s.21-4.97-.47-4.95c-1.18-.38-1.8,4.95-1.8,4.95Z"/>
      <path class="cls-11" d="m35.23,272.06l-2.27.07s0,6.77.68,6.72c1.2.48,1.59-6.79,1.59-6.79Z"/>
      <path class="cls-11" d="m18.81,270.73h2.27s.21-4.97-.47-4.95c-1.18-.38-1.8,4.95-1.8,4.95Z"/>
      <path class="cls-11" d="m21.24,271.54l-2.27.07s0,6.77.68,6.72c1.2.48,1.59-6.79,1.59-6.79Z"/>
      <path class="cls-11" d="m47.19,272.13h2.27s.21-4.97-.47-4.95c-1.18-.38-1.8,4.95-1.8,4.95Z"/>
      <path class="cls-11" d="m49.62,272.94l-2.27.07s0,6.77.68,6.72c1.2.48,1.59-6.79,1.59-6.79Z"/>
      <path class="cls-11" d="m62.78,272.34h2.27s.21-4.97-.47-4.95c-1.18-.38-1.8,4.95-1.8,4.95Z"/>
      <path class="cls-11" d="m65.21,273.15l-2.27.07s0,6.77.68,6.72c1.2.48,1.59-6.79,1.59-6.79Z"/>
      <path class="cls-11" d="m77.73,273.12h2.27s.21-4.97-.47-4.95c-1.18-.38-1.8,4.95-1.8,4.95Z"/>
      <path class="cls-11" d="m80.16,273.93l-2.27.07s0,6.77.68,6.72c1.2.48,1.59-6.79,1.59-6.79Z"/>
      <path class="cls-11" d="m93.47,273.79h2.27s.21-4.97-.47-4.95c-1.18-.38-1.8,4.95-1.8,4.95Z"/>
      <path class="cls-11" d="m95.89,274.61l-2.27.07s0,6.77.68,6.72c1.2.48,1.59-6.79,1.59-6.79Z"/>
      <path class="cls-11" d="m108.12,274.48h2.27s.21-4.97-.47-4.95c-1.18-.38-1.8,4.95-1.8,4.95Z"/>
      <path class="cls-11" d="m110.55,275.3l-2.27.07s0,6.77.68,6.72c1.2.48,1.59-6.79,1.59-6.79Z"/>
      <path class="cls-11" d="m124.08,275.73h2.27s.21-4.97-.47-4.95c-1.18-.38-1.8,4.95-1.8,4.95Z"/>
      <path class="cls-11" d="m126.51,276.55l-2.27.07s0,6.77.68,6.72c1.2.48,1.59-6.79,1.59-6.79Z"/>
      <path class="cls-11" d="m138.82,275.73h2.27s.21-4.97-.47-4.95c-1.18-.38-1.8,4.95-1.8,4.95Z"/>
      <path class="cls-11" d="m141.25,276.55l-2.27.07s0,6.77.68,6.72c1.2.48,1.59-6.79,1.59-6.79Z"/>
      <path class="cls-11" d="m155.47,277.34h2.27s.21-4.97-.47-4.95c-1.18-.38-1.8,4.95-1.8,4.95Z"/>
      <path class="cls-11" d="m157.9,278.15l-2.27.07s0,6.77.68,6.72c1.2.48,1.59-6.79,1.59-6.79Z"/>
      <path class="cls-11" d="m224.56,281.38h2.27s.21-4.97-.47-4.95c-1.18-.38-1.8,4.95-1.8,4.95Z"/>
      <path class="cls-11" d="m226.98,282.2l-2.27.07s0,6.77.68,6.72c1.2.48,1.59-6.79,1.59-6.79Z"/>
      <path class="cls-11" d="m242.07,282.61h2.27s.21-4.97-.47-4.95c-1.18-.38-1.8,4.95-1.8,4.95Z"/>
      <path class="cls-11" d="m244.5,283.42l-2.27.07s0,6.77.68,6.72c1.2.48,1.59-6.79,1.59-6.79Z"/>
      <path class="cls-11" d="m258.48,283.2h2.27s.21-4.97-.47-4.95c-1.18-.38-1.8,4.95-1.8,4.95Z"/>
      <path class="cls-11" d="m260.9,284.01l-2.27.07s0,6.77.68,6.72c1.2.48,1.59-6.79,1.59-6.79Z"/>
      <path class="cls-11" d="m275.11,283.87h2.27s.21-4.97-.47-4.95c-1.18-.38-1.8,4.95-1.8,4.95Z"/>
      <path class="cls-11" d="m277.53,284.68l-2.27.07s0,6.77.68,6.72c1.2.48,1.59-6.79,1.59-6.79Z"/>
      <path class="cls-11" d="m292.43,284.88h2.27s.21-4.97-.47-4.95c-1.18-.38-1.8,4.95-1.8,4.95Z"/>
      <path class="cls-11" d="m294.86,285.69l-2.27.07s0,6.77.68,6.72c1.2.48,1.59-6.79,1.59-6.79Z"/>
      <path class="cls-11" d="m309.79,286.09h2.27s.21-4.97-.47-4.95c-1.18-.38-1.8,4.95-1.8,4.95Z"/>
      <path class="cls-11" d="m312.21,286.91l-2.27.07s0,6.77.68,6.72c1.2.48,1.59-6.79,1.59-6.79Z"/>
      <path class="cls-11" d="m327.93,286.76h2.27s.21-4.97-.47-4.95c-1.18-.38-1.8,4.95-1.8,4.95Z"/>
      <path class="cls-11" d="m330.35,287.57l-2.27.07s0,6.77.68,6.72c1.2.48,1.59-6.79,1.59-6.79Z"/>
      <path class="cls-11" d="m344.93,287.77h2.27s.21-4.97-.47-4.95c-1.18-.38-1.8,4.95-1.8,4.95Z"/>
      <path class="cls-11" d="m347.36,288.58l-2.27.07s0,6.77.68,6.72c1.2.48,1.59-6.79,1.59-6.79Z"/>
      <path class="cls-11" d="m364.12,288.98h2.27s.21-4.97-.47-4.95c-1.18-.38-1.8,4.95-1.8,4.95Z"/>
      <path class="cls-11" d="m366.55,289.8l-2.27.07s0,6.77.68,6.72c1.2.48,1.59-6.79,1.59-6.79Z"/>
      <path class="cls-11" d="m381.12,288.98h2.27s.21-4.97-.47-4.95c-1.18-.38-1.8,4.95-1.8,4.95Z"/>
      <path class="cls-11" d="m383.55,289.8l-2.27.07s0,6.77.68,6.72c1.2.48,1.59-6.79,1.59-6.79Z"/>
      <path class="cls-11" d="m403.79,280.08c-.16-.56-1.77-6.08-2.4-6.45-1.31-1.19.17,5.13.17,5.13,0,0,2.67,8.51,3.32,8.86,1.37,1.35-.73-6.69-1.09-7.54Z"/>
      <path class="cls-11" d="m406.43,267.86c-.16-.56-1.77-6.08-2.4-6.45-1.31-1.19.17,5.13.17,5.13,0,0,2.67,8.51,3.32,8.86,1.37,1.35-.73-6.69-1.09-7.54Z"/>
      <path class="cls-11" d="m408.89,256.44c-.15-.51-1.68-5.58-2.29-5.92-1.26-1.09.16,4.71.16,4.71,0,0,2.54,7.81,3.16,8.13,1.31,1.24-.69-6.15-1.03-6.92Z"/>
      <path class="cls-11" d="m410.87,246.29c-.12-.47-1.33-5.07-1.79-5.38-.97-1,.16,4.27.16,4.27,0,0,2,7.09,2.48,7.39,1.01,1.13-.57-5.57-.84-6.28Z"/>
    </g>
  </g>
</svg>