<?xml version="1.0" encoding="UTF-8"?>
<svg id="Calque_2" data-name="Calque 2" xmlns="http://www.w3.org/2000/svg" viewBox="0 0 51.71 219.09">
  <defs>
    <style>
      .cls-1 {
        fill: #575756;
      }

      .cls-2 {
        fill: #9d9d9c;
      }

      .cls-3 {
        fill: none;
        stroke: #3c3c3b;
        stroke-linecap: round;
        stroke-linejoin: round;
        stroke-width: .5px;
      }

      .cls-4 {
        fill: #878787;
      }
    </style>
  </defs>
  <g id="CoruscantBase">
    <g>
      <path class="cls-1" d="m1.42,219.09c0-2.95-1.42-57.94-1.42-57.94,0,0,1.13-8.5,5.67-9.35,0,0-7.94-82.73,7.37-99.9l-.6-24.43s-.74-.67.25-1.17v-1.36s-.65-.85.09-1.45c0,0,2.29-20.12,7.96-23.29,2.89-1.89,8.15,10.68,9.5,23.01l.94,27.4c2.26.64,19.48,11.91,17.2,104.5,2.85.98,4.42,22.7,2.46,63.98H1.42Z"/>
      <path class="cls-2" d="m29.23,149.25s4.81,8.31,4.81,17.95l1.36,51.88h10.33s-2.27-40.03-2.74-67.58c-.42-24.43,1.52-36.27-6.31-43.15-1.46-1.29-3.59-1.58-5.34-.73-2.15,1.05-4,4.27-2.12,41.63Z"/>
      <path class="cls-4" d="m20.69,1.09s5.95,5.01,9.07,25.04c0,0,1.8-17.48-8.22-26.13,0,0-1.78.05-.85,1.09Z"/>
      <path class="cls-4" d="m21.4,47.76c-.09.11,3.12,114.94,3.12,114.94l3.26-8.36s-1.28-6.09,1.7-4.68c0,0-4.11-43.37,2.98-40.82,0,0-3.83-69.45-11.06-61.09Z"/>
      <path class="cls-4" d="m31.12,50.41l1.28,58.25s10.86-5.3,10.58,41.62c0,0,2.44.6,5,4.35,3.46,5.07,3.33-97.85-16.86-104.22Z"/>
      <path class="cls-3" d="m29.36,149.49c-.93-17.17-2.29-40.64,3.1-40.64"/>
      <line class="cls-3" x1="31.18" y1="50.6" x2="32.46" y2="108.85"/>
    </g>
  </g>
</svg>