<?xml version="1.0" encoding="UTF-8"?>
<svg id="Calque_2" data-name="Calque 2" xmlns="http://www.w3.org/2000/svg" viewBox="0 0 28.58 158.9">
  <defs>
    <style>
      .cls-1 {
        fill: #575756;
      }

      .cls-2 {
        fill: #b2b2b2;
      }

      .cls-3 {
        fill: #878787;
      }

      .cls-4 {
        fill: none;
        stroke: #3c3c3b;
        stroke-linecap: round;
        stroke-miterlimit: 10;
        stroke-width: .5px;
      }
    </style>
  </defs>
  <g id="CoruscantBase">
    <g>
      <path class="cls-1" d="m25.16,36.91c1.18-13.18-5.43-11.76-5.43-11.76.94-3.21-.63-3.77-.63-3.77.69-.43.08-1.32.08-1.32-1.3-.38-2.51-.64-3.64-.82l-.27-19.23s-1.12,14.29-1.46,19.02c-1.1-.1-2.09-.11-2.96-.07l-.67-10.3s-.66,7.62-.88,10.43c-1.67.2-2.69.54-2.97.57-.67.06-.11,1.84-.11,1.84,0,0-1.36-.17-2.05.26-.69.43-.16,2.83-.16,2.83C-.13,25.07,0,31.73,0,31.73l.26,127.17,25.93-.23-1.03-121.75Z"/>
      <path class="cls-3" d="m11.91,25.69s2.55.95,3.69,6.05,2.68,127,2.68,127l3.53-.03-3.8-127.25s-.99-8.6-6.09-5.76Z"/>
      <path class="cls-2" d="m25.27,30.51s-.88-7.5-5.48-5.57c.19-.43.42-1.35.37-2.5-.07-1.72-1.1-1.27-1.1-1.27.57,1.07.56,3.02.53,3.74-.14.06-.28.13-.42.21,0,0,2.55.57,3.68,5.67s2.69,127.88,2.69,127.88h3.03s-3.31-128.16-3.31-128.16Z"/>
      <path class="cls-4" d="m4.01,24.58c5.55,1.27,11.2.85,15.54.39"/>
      <path class="cls-4" d="m6.07,20.89c3.96,1.07,9.46.83,13.02.48"/>
    </g>
  </g>
</svg>