<?xml version="1.0" encoding="UTF-8"?>
<svg id="Calque_2" data-name="Calque 2" xmlns="http://www.w3.org/2000/svg" viewBox="0 0 40.44 163.45">
  <defs>
    <style>
      .cls-1 {
        fill: #575756;
      }

      .cls-2 {
        fill: #b2b2b2;
      }

      .cls-3 {
        stroke: #575756;
        stroke-linecap: round;
      }

      .cls-3, .cls-4 {
        fill: none;
        stroke-miterlimit: 10;
      }

      .cls-5 {
        fill: #9d9d9c;
      }

      .cls-4 {
        stroke: #3c3c3b;
        stroke-width: .75px;
      }
    </style>
  </defs>
  <g id="CoruscantBase">
    <g>
      <path class="cls-1" d="m1.8,14.63l-1.32,3.02-.47,15.78s9.45,6.05,10.02,11.34-.38,118.41-.38,118.41h30.8l-1.89-142.41S28.91,5.84,12.47,8.11c0,0-6.43,1.89-10.68,6.52Z"/>
      <path class="cls-5" d="m3.04,14.77l.15-1.51S13.96,1.71,27.87,10.96c1.85.71,9.23,5.56,10.98,10.13,2,5.21,1.41,142.22,1.41,142.22h-10.96l-.57-125.21s-12.97-12.52-19.28-11.46L3.04,14.77Z"/>
      <line class="cls-3" x1="2.6" y1=".5" x2="2.79" y2="17.65"/>
      <path class="cls-2" d="m3.21,15.12c.8.09.47,7.04.47,7.04,0,0,2.83-3.07,2.17-3.87s-1.46-.94-1.46-.94l-.14-2.69-1.04.47Z"/>
      <line class="cls-4" x1="15.31" y1="29.41" x2="15.87" y2="163"/>
      <line class="cls-4" x1="17.85" y1="29.26" x2="19.13" y2="163.18"/>
      <line class="cls-4" x1="33.52" y1="29.68" x2="34.09" y2="163.26"/>
      <line class="cls-4" x1="36.52" y1="29.52" x2="37.35" y2="163.45"/>
      <path class="cls-4" d="m17.87,31.26c-.44-17.1,15.93-15.61,15.65-1.58"/>
      <path class="cls-4" d="m15.31,29.41c-.19-19.61,21.97-18.38,21.21.25"/>
    </g>
  </g>
</svg>