<?xml version="1.0" encoding="UTF-8"?>
<svg id="Calque_2" data-name="Calque 2" xmlns="http://www.w3.org/2000/svg" viewBox="0 0 31.32 225.91">
  <defs>
    <style>
      .cls-1 {
        fill: #575756;
      }

      .cls-2 {
        fill: #878787;
      }
    </style>
  </defs>
  <g id="CoruscantBase">
    <g>
      <path class="cls-1" d="m7.65,60.83s.43-.6,2.66-.39c0,0,2.87-28.62,2.52-30.34,0,0-.05,29.57.69,30.17s1.96.09,1.96.09L18.85,0s-3.17,51.99.47,61.89c0,0,1.11-.12,1.02,1.65s0,16.28,0,16.28c0,0,5.45,7.37,3.4,36.07,0,0,10.7,9.92,6.59,29.98l.99,80.05H0L1.7,87.47s1.04-6.33,5.53-8.69l.43-17.95Z"/>
      <path class="cls-2" d="m10.2,134.6l1.98-50.24s.43-5.39,3.47-3.05,4.68,4.82,5.53,12.05-.35,132.52-.35,132.52l10.49.04-.86-80.73s-.91-5.69-4.95-8.53c0,0,.34-8.36-1.84-10.06l1.28-7.37-1.2-3.33s3.06-32.24-3.4-36.07v-16.28s.12-1.43-.87-1.65-1.8-15.03-1.8-15.03l-.81,13.89s-3.52.04-3.35-.5-.42-5.14-.42-5.14c0,0-1.4,2.02-2.11,5.07s-4.75,80.01-4.75,80.01l-1.13,85.72h4.54l.57-91.32Z"/>
    </g>
  </g>
</svg>