<?xml version="1.0" encoding="UTF-8"?>
<svg id="Calque_2" data-name="Calque 2" xmlns="http://www.w3.org/2000/svg" viewBox="0 0 72.72 301.9">
  <defs>
    <style>
      .cls-1 {
        fill: #575756;
      }

      .cls-2 {
        fill: none;
        stroke: #3c3c3b;
        stroke-linecap: round;
        stroke-linejoin: round;
        stroke-width: .5px;
      }

      .cls-3 {
        fill: #878787;
      }
    </style>
  </defs>
  <g id="CoruscantBase">
    <g>
      <path class="cls-1" d="m67.61,126.07s-.94-42.9-24.94-61.98c0,0,3.02-24.47-7.8-62.1,0,0-2.2-4.46-6.31,0-4.11,4.46-13.89,37.91-11.27,73.63-6.18,6.93-14.32,92.09-8.43,121.18l.04,20.52c-4.65,2-6.07,11.23-6.07,11.23-4.11,4.54-2.55,73.1-2.55,73.1h72.43l-5.1-175.58Z"/>
      <path class="cls-3" d="m19.71,82.2s15.8,33.38,14.1,43.37-5.88,9.07-3.9,33.87l-14.81,31.18s-3.12-107.86,4.61-108.43Z"/>
      <path class="cls-3" d="m29.76,160.99c5.67,5.12,7.91,12.73,9.58,20.07l5.83.9.76,56.36,10.13-21.05s7.02,4.54,5.31,27.85l-.14,1.13h2.98l1.56,55.39,2.62-.39-1.84-68.39s-.64-15.38-9.35-18.6l-1.06-34.33s-11.83-38.65-26.37-18.94Z"/>
      <path class="cls-1" d="m62.34,243.96c0-1.66.73-4.59,1.71-4.59s1.88,2.86,1.88,4.51-.9,1.49-1.88,1.49-1.71.25-1.71-1.41Z"/>
      <g>
        <line class="cls-2" x1="8.91" y1="217.32" x2="9.08" y2="301.65"/>
        <path class="cls-2" d="m18.01,301.65c-.22-37.53-3.8-87.14,6.34-87.38"/>
        <path class="cls-2" d="m38.27,155.27c-13.45-.04-14.57,27.51-13.93,59"/>
        <path class="cls-2" d="m28.63,64.05c5.87,1.67,9.56,55.22,9.65,91.22"/>
        <path class="cls-2" d="m28.63,64.05c-6.68-2.96-9.73,5.22-11.33,11.57"/>
      </g>
      <path class="cls-3" d="m38.77,122.6S40.32,2.74,30.37.49c0,0,2.59-1.69,4.51,1.5s11.41,45.9,7.8,62.1c3.19-.04,23.46,20.6,24.75,58.51l5.3,179.05h-2.76s-1.56-80.05-1.56-80.05l-1.13-50.81c-.07.59-2.57-54.47-7.44-70.8,0,0-8.79-30.54-20.2-32.95l.21,51.17-1.06,4.39Z"/>
    </g>
  </g>
</svg>