<?xml version="1.0" encoding="UTF-8"?>
<svg id="Calque_2" data-name="Calque 2" xmlns="http://www.w3.org/2000/svg" viewBox="0 0 39.1 97.34">
  <defs>
    <style>
      .cls-1 {
        fill: #575756;
      }

      .cls-2 {
        fill: #9d9d9c;
      }

      .cls-3 {
        fill: none;
        stroke: #3c3c3b;
        stroke-linecap: round;
        stroke-linejoin: round;
        stroke-width: .5px;
      }
    </style>
  </defs>
  <g id="CoruscantBase">
    <g>
      <path class="cls-1" d="m6.08,4.96S10.98.64,16.1,0h5.46s7.44,2.13,8.49,4.39l-2.75,1.77-.17.92h1.98l-.4,3.4h-.99l-.09,6.73c-.18,6.23,1.42,14.24,3.42,17.72l.93,9.92s2.35-.43,1.62,2.41c-.74,2.83,6.09,48.76,5.48,50.07H.04c-.17.42.1-40,3.45-49.11-.05-1.79,1.08-2.03,1.73-1.74l1.14-10.96s-.2-2.36,2.54-2.36l.77-22.02-2.07-.19.29-3.02,2.17.09-.04-1.51-3.94-1.56Z"/>
      <path class="cls-2" d="m19.84,3.78l3.11-3.34s6.43,2.21,7.1,3.95l-10.21-.61Z"/>
      <polygon class="cls-2" points="25.25 9.92 29.1 7.09 28.7 10.49 24.72 10.49 25.25 9.92"/>
      <path class="cls-2" d="m22.71,16.65s2.85-3.47,4.96-3.69c0,0-.31,15.41,3.36,21.97l-12.76.54s-1.7-2.31,5.26-3.73l-.82-15.09Z"/>
      <path class="cls-2" d="m20.8,46.75c3.9-.13,7.63-.75,11.17-1.89,0,0,.19-9.5-.94-9.64s-6.18.39-3.56,3.65c0,0,.95,3.19-.02,4.5s-4.19,1.28-4.19,1.28c0,0-3.29.51-2.46,2.1Z"/>
      <path class="cls-2" d="m26.99,50.14l6.58-.92.02-1.95s-4.67.53-6.6,2.87Z"/>
      <path class="cls-2" d="m27.97,52.76l-.08,7.48h5.63l.97,6.7h-5.24s-1.72,8.65-.29,12.37l8.11-.24-3.21-26.3h-5.89Z"/>
      <polygon class="cls-2" points="28.71 83.2 37.52 82.62 39.06 96.01 28.27 96.01 28.71 83.2"/>
      <path class="cls-3" d="m6.51,4.96c10.95-1.68,13.68-1.55,23.13-.57"/>
      <path class="cls-3" d="m7.96,8.08c10.5.34,11.1,1,21.06-.87"/>
      <path class="cls-3" d="m7.76,11.02c10.5.34,11.1,1,21.06-.87"/>
      <path class="cls-3" d="m6.66,34.94c8.29.63,16.46.82,24.38,0"/>
      <path class="cls-3" d="m5.5,46.37c8.29.63,19.81,1.03,26.64-1.53"/>
      <path class="cls-3" d="m3.3,49.75c9.33,1.56,23.82.83,30.27-.53"/>
      <line class="cls-3" x1="37.03" y1="80.08" x2=".83" y2="80.22"/>
    </g>
  </g>
</svg>