<?xml version="1.0" encoding="UTF-8"?>
<svg id="Calque_2" data-name="Calque 2" xmlns="http://www.w3.org/2000/svg" viewBox="0 0 25.43 153.64">
  <defs>
    <style>
      .cls-1 {
        fill: #575756;
      }

      .cls-2 {
        fill: none;
        stroke: #3c3c3b;
        stroke-linecap: round;
        stroke-linejoin: round;
        stroke-width: .5px;
      }

      .cls-3 {
        fill: #706f6f;
      }

      .cls-4 {
        fill: #878787;
      }
    </style>
  </defs>
  <g id="CoruscantBase">
    <g>
      <path class="cls-1" d="m1.92,10.08l4.96-.39s.02-1.63,0-1.63.73,0,.73,0l.16-6.17,1.12-1.9s2.57,1.58,2.41,7.23l1.33-.02v1.61s5.67.19,6.48-1.1l.12-6.15s1.56.37,1.28,5.86l.03,5.97s-1.42-4.13-1.77-3.88l-.83.02s1.2,1.74,1.26,2.94,6.24,141.13,6.24,141.13H1.76L.01,55.15h1.98L.68,13.29s-.3-1.61,1.27-1.58l-.03-1.63Z"/>
      <path class="cls-2" d="m.25,55.29c3.05.17,6.31-.04,9.69-.47"/>
      <line class="cls-2" x1="10.41" y1="72.44" x2="9.94" y2="54.82"/>
      <path class="cls-3" d="m7.86,72.69c-.33-.47,2.59-.97,4.86-.53,2,.39,3.5,81.46,3.5,81.46h-.85l-3.09-80.72-4.41-.21"/>
      <path class="cls-4" d="m25.43,153.62L19.14,12.12s-.09-1.99-1.37-2.59l6.06,144.1h1.59Z"/>
      <line class="cls-2" x1="8.75" y1="153.39" x2="7.86" y2="72.69"/>
    </g>
  </g>
</svg>