<?xml version="1.0" encoding="UTF-8"?>
<svg id="Calque_2" data-name="Calque 2" xmlns="http://www.w3.org/2000/svg" viewBox="0 0 488.31 351.55">
  <defs>
    <style>
      .cls-1 {
        fill: #cbae83;
      }

      .cls-2 {
        opacity: .75;
      }

      .cls-2, .cls-3 {
        fill: #936037;
      }

      .cls-4 {
        fill: #634e42;
        opacity: .35;
      }

      .cls-5 {
        fill: none;
        stroke: #634e42;
        stroke-miterlimit: 10;
        stroke-width: .5px;
      }

      .cls-3 {
        opacity: .86;
      }

      .cls-6 {
        fill: #432918;
      }

      .cls-7 {
        fill: #b17f4a;
      }

      .cls-8 {
        fill: #ca9e67;
      }
    </style>
  </defs>
  <g id="Lars_Homestead" data-name="Lars Homestead">
    <g>
      <path class="cls-1" d="m0,165.31l3.4-61.83,78.24-3.4S139.61-4.31,230.95.14s139.63,75.32,152.48,103.85l50.46-1.51s12.66-4.16,17.01,48l12.28,7.56v64.44h-66.14l-1.13,31.94,92.41,54.24-240.19,42.9-62.36-54.61,3.59-13.8,7.94-2.27-11.34-9.45-6.43-8.36-49.51.8s-55.75-5.1-47.06-24.19L.94,243.08l-.94-77.76Z"/>
      <path class="cls-3" d="m373.98,168.05s7.28-.26,22.3,8.88l-26.14-1.14-3.56-14.66s24.41-2.53,29.32-4.8,4.72-4.35,4.72-4.35l47.62-3.4,13.98,9.64.94,64.25h-66.14l.19-45.73s-16.63-12.09-23.24-8.69Z"/>
      <path class="cls-2" d="m177.45,179.77v83.33s-99.4,7.01-94.49-23.42L.94,243.08s-1.61-72.38,0-71.81,76.72,0,76.72,0c0,0,20.41,10.21,99.78,8.51Z"/>
      <path class="cls-4" d="m275.53,108.34s44.79-48.19,44.79-68.6,0-9.38,0-9.38c0,0,42.52,30.36,59.53,69.48l3.12,5.1,9.92-1.13,57.69,40.39.33,6.28-2.65-1.89-47.62,3.4s2.16,6.66-34.04,9.14c0,0-9.99-40.89-53.78-48.26,0,0-33.87-5.1-41.95-1.13l4.68-3.4Z"/>
      <path class="cls-7" d="m322.58,293.16l4.54-112.25v-14.46s-13.04-28.9-29.48-23.38c0,0,18.61,13.83,18.71,38.12s-5.29,98.55-5.29,98.55l11.53,13.42Z"/>
      <path class="cls-8" d="m339.87,307.9c0-1.98,5.39-138.33,5.39-138.33,0,0-12.76-36.85-43.65-30.33s-38.83,24.09-38.83,24.09c0,0-3.69,4.2-5.39,12.45s3.97,113.98,3.97,113.98l2.27-2.27-3.59-111.71s14.66-35.94,41.13-33.4,25.95,38.53,25.95,38.53l-2.27,112.25,15.02,14.74Z"/>
      <path class="cls-2" d="m197.29,280.87l-3.69-83.81s-2.55-11.34,12.76-11.06,24.59-3.69,24.59-3.69c0,0,4.89-79.28,94.46-63.21,22.59,4.05,37.42,26.08,42.24,45.92s1.98,10.74,1.98,10.74l26.65,1.16-.38,77.48,29.86,17.76-39.97,3.12,1.98,37.42-106.87,13.04-44.79-47.34-38.83,2.46Z"/>
      <path class="cls-6" d="m311.06,279.74s4.91-85.61,4.54-96.94-2.83-31.56-12.66-37.42-21.73,3.21-21.73,3.21c0,0-20.79,12.42-21.17,27.19s3.21,107.93,3.21,107.93l.38,3.78s34.96-17.95,47.43-7.75Z"/>
      <line class="cls-5" x1="362.55" y1="263.79" x2="437.67" y2="305.91"/>
      <line class="cls-5" x1="236.13" y1="278.42" x2="280.91" y2="325.76"/>
      <line class="cls-5" x1="437.67" y1="305.91" x2="280.91" y2="325.76"/>
      <line class="cls-5" x1="414.88" y1="157.66" x2="463.18" y2="158.04"/>
      <path class="cls-5" d="m372.28,166.73c17.01-.32,30.75-3.8,42.6-9.07"/>
      <path class="cls-5" d="m177.45,179.77c-50.63.21-93.8-.89-99.78-8.51"/>
      <path class="cls-5" d="m86.17,166.73c4.23-29.58,5.66-55.58-4.54-66.65"/>
      <path class="cls-5" d="m400.63,151.99c-8.49-21.66-12.58-41.07-17.2-48"/>
      <path class="cls-5" d="m210.9,171.26c-48,1.51-87.69,0-119.06-4.53"/>
      <path class="cls-5" d="m177.45,179.77c-.71-9.28,29.2-6.31,32.95-8.51"/>
    </g>
  </g>
</svg>