<?xml version="1.0" encoding="UTF-8"?>
<svg id="Calque_2" data-name="Calque 2" xmlns="http://www.w3.org/2000/svg" viewBox="0 0 134.07 109.57">
  <defs>
    <style>
      .cls-1 {
        fill: #9a8379;
      }

      .cls-1, .cls-2, .cls-3, .cls-4 {
        fill-rule: evenodd;
      }

      .cls-2 {
        fill: #cbae83;
      }

      .cls-3 {
        fill: #7b6a58;
      }

      .cls-4 {
        fill: #a48a7b;
      }
    </style>
  </defs>
  <g id="Lars_Homestead" data-name="Lars Homestead">
    <path id="path74804" class="cls-2" d="m22.46,49l-3.4-24.5,31.98-15.65L65.33,0l23.14,10.21,7.49,14.97,23.14,5.44,14.97,27.22-10.53,12.74-15.33,6.32-41.51-4.76-10.89-14.29-33.35-8.85Z"/>
    <path id="path74806" class="cls-2" d="m19.06,24.5L0,46.62l2.38,28.24,12.93,24.16,18.03,4.76-8.51-19.05,2.38-17.7-4.76-18.03-3.4-24.5Z"/>
    <path id="path74808" class="cls-4" d="m22.46,49l33.35,8.85,10.89,14.29-5.11,12.93,7.15,12.25-1.02,12.25-34.37-5.78-8.51-19.05,2.38-17.7-4.76-18.03Z"/>
    <path id="path74810" class="cls-3" d="m108.21,76.9l-.68,15.31-7.32,14.8-32.5,2.55,1.02-12.25-7.15-12.25,5.11-12.93,41.51,4.76Z"/>
    <path id="path74812" class="cls-3" d="m100.21,107.02l23.65-15.65,10.21-17.35v-16.17s-10.53,12.74-10.53,12.74l-15.33,6.32-.68,15.31-7.32,14.8Z"/>
    <path id="path74814" class="cls-4" d="m107.52,92.21l14.51-6.9,12.03-11.3v-16.17s-10.53,12.74-10.53,12.74l-15.33,6.32-.68,15.31Z"/>
    <path id="path74816" class="cls-1" d="m19.8,29.89l4.18,17.58,33.01,8.93,10.03,13.7,39.81,5.11,15.5-4.12-14.13,5.82-41.51-4.76-10.89-14.29-33.35-8.85-2.65-19.11Z"/>
    <path id="path74818" class="cls-4" d="m22.46,49l4.76,18.03-1.85,13.76,3.29-13.5-4.97-17.97.3-1.85-1.53,1.53Z"/>
    <path id="path74820" class="cls-1" d="m65.76,74.5l-4.18,10.57,7.15,12.25-.73,8.75,1.83-9.51-6.81-11.4,2.73-10.66Z"/>
    <path id="path74822" class="cls-1" d="m108.11,79.12l-.58,13.09-4.72,9.55,5.27-8.87,10.12-5.76-9.88,4.7-.2-12.72Z"/>
  </g>
</svg>