<?xml version="1.0" encoding="UTF-8"?>
<svg id="Calque_2" data-name="Calque 2" xmlns="http://www.w3.org/2000/svg" viewBox="0 0 97.25 13.02">
  <defs>
    <style>
      .cls-1 {
        fill: #575756;
      }

      .cls-2 {
        fill: #b2b2b2;
        opacity: .5;
      }
    </style>
  </defs>
  <g id="Nuages_et_Ciel" data-name="Nuages et Ciel">
    <g>
      <g>
        <path class="cls-1" d="m0,11.35s70.02,3.02,93.26.94c0,0-3.59-4.44-29.39-3.21,0,0-7.28-3.5-11.06-2.08,0,0-6.9-14.83-18.05-1.32,0,0-4.63-2.31-6.61.83,0,0-6.9-.08-6.71,2.48,0,0-20.69.47-21.45,2.36Z"/>
        <path class="cls-2" d="m35.5,6.53s.74,2.18,2.9.84,2.18-3.79,2.18-3.79c0,0-.56-2.03-1.89-.55s-3.2,3.5-3.2,3.5Z"/>
      </g>
      <path class="cls-1" d="m96.44,1.56s-6.73-1.84-10.56,0-12.54-1.28-11.34,0,14.53,3.26,17.22,2.48,7.37-1.49,4.68-2.48Z"/>
    </g>
  </g>
</svg>