<?xml version="1.0" encoding="UTF-8"?>
<svg id="Calque_2" data-name="Calque 2" xmlns="http://www.w3.org/2000/svg" viewBox="0 0 181.74 38.9">
  <defs>
    <style>
      .cls-1 {
        fill: #575756;
      }

      .cls-2 {
        fill: #b2b2b2;
        opacity: .5;
      }
    </style>
  </defs>
  <g id="Nuages_et_Ciel" data-name="Nuages et Ciel">
    <g>
      <path class="cls-1" d="m.32,31.84s72,1.13,73.98,2.83-4.54,1.98-2.27,3.12,33.54,1.51,36,.57,40.16-.38,40.91-.57,32.22.85,32.79.09-28.91-1.98-28.91-1.98c0,0,9.54.28,8.88-2.65s-7.28-13.89-16.25-10.49-4.16-11.62-13.61-10.02S115.69-4.35,107.94.95c0,0-16.25-1.7-25.23,11.24,0,0-12.94-6.05-17.29.47,0,0-18.52-.6-21.83,6.79,0,0-19.18-1.34-20.03,0s19.94,3.61,23.91,2.09c0,0,2.08,3.12-2.55,3.4-4.63.28-8.98.47-11.53,4.44S-3.65,26.84.32,31.84Z"/>
      <path class="cls-2" d="m87.23,18.34s1.72-4.5,7.22-5.61c5.5-1.11,9.86.05,9.86.05,0,0,3.81-.97,3.27-2.92s-7.88-.12-7.88-.12c0,0-3.05-2.5-5.83-.57s-9.71,4.11-9.28,8.24,2.63.92,2.63.92Z"/>
      <path class="cls-2" d="m127.27,29.42s-2.54-4.1-8.15-4.15c-5.61-.05-9.68,1.91-9.68,1.91,0,0-3.92-.24-3.76-2.25s7.71-1.6,7.71-1.6c0,0,2.52-3.03,5.62-1.66s10.31,2.2,10.67,6.35-2.41,1.4-2.41,1.4Z"/>
      <path class="cls-2" d="m50.4,19.45c7.28-1.12,8.69-2.35,8.69-2.35,0,0-5.2-1.98-7.75,0s-.94,2.35-.94,2.35Z"/>
      <path class="cls-2" d="m127.31,19.16s1.13-5.8,6.05-1.94,3.21,6.88,3.21,6.88c0,0-1.04-5.75-4.49-4.1s-4.77-.83-4.77-.83Z"/>
    </g>
  </g>
</svg>