<?xml version="1.0" encoding="UTF-8"?>
<svg id="Calque_2" data-name="Calque 2" xmlns="http://www.w3.org/2000/svg" viewBox="0 0 119.72 41.63">
  <defs>
    <style>
      .cls-1 {
        fill: #f6f6f6;
      }

      .cls-2 {
        fill: #dadada;
        opacity: .5;
      }
    </style>
  </defs>
  <g id="Nuages_et_Ciel" data-name="Nuages et Ciel">
    <g>
      <path class="cls-1" d="m7.16,40.57c1.8-.57,11.72,2.65,15.5,0s61.61-2.27,61.61-2.27c0,0,3-2.08-23.93-3.07,0,0-4.11-1.13.64-1.63s42.09.43,42.09.43c0,0-42.59-4.96-44.22-9.07h60.87s-22.54-4.82-31.39-3.33c0,0-3.69-30.19-31.25-8.93,0,0-9.5-12.05-20.34-3.33,0,0-4.82-7.16-13.54-.92,0,0-3.26-12.05-13.61-7.37S.39,12.56.39,12.56c0,0-2.06,5.88,3.33,7.51s.57,9.28.57,9.28c0,0-9.33,15.07,2.88,11.22Z"/>
      <path class="cls-2" d="m18.95,15.18s.15-.05.36-.03c1.09.11,4.24.95,4.24.95,0,0,9.99-4.04,15.66,3.26,0,0-5.74-.71-13.68,1.91,0,0-5.19.22-2.34-2.83l-4.25-3.26Z"/>
      <path class="cls-2" d="m24.69,24.89s9.64,1.7,13.75,4.96l15.02-.5s-4.39-3.69-14.39-1.98c0,0-4.96-7.51-14.39-4.04,0,0-1.77.85,0,1.56Z"/>
      <path class="cls-2" d="m8.77,7.88c1.98,1.7,3.78-.19,4.72,3.59s3.78-1.13,3.78-1.13c0,0,.26-5.96-4.25-4.35-1.98.71-4.25,1.89-4.25,1.89Z"/>
    </g>
  </g>
</svg>