<?xml version="1.0" encoding="UTF-8"?>
<svg id="Calque_2" data-name="Calque 2" xmlns="http://www.w3.org/2000/svg" viewBox="0 0 71.47 13.2">
  <defs>
    <style>
      .cls-1 {
        fill: #f6f6f6;
      }

      .cls-2 {
        fill: #dadada;
        opacity: .5;
      }
    </style>
  </defs>
  <g id="Nuages_et_Ciel" data-name="Nuages et Ciel">
    <g>
      <path class="cls-1" d="m1.25,12.99c.86.49,69.87,0,69.87,0,0,0,2.98-3.69-8.5-2.69,0,0-4.11-20.69-24.94-3.4,0,0-5.53-3.83-10.2.71,0,0-5.39-5.67-11.62,1.98,0,0-21.12-.28-14.6,3.4Z"/>
      <path class="cls-2" d="m25.79,7.51c-.78.04-5.17.04-4.32.92s6.24.67,6.24.67c0,0,1.1-1.75-1.91-1.59Z"/>
      <path class="cls-2" d="m39.94,5.08s1.54.8,2.38,3.9,2.58-1.46,2.58-1.46c0,0,4.91-1.21,1.54-2.27s2.27-2.55,2.27-2.55c0,0,2.93-1.43,1.02-2.19s-9.78,4.56-9.78,4.56Z"/>
    </g>
  </g>
</svg>