<?xml version="1.0" encoding="UTF-8"?>
<svg id="Calque_2" data-name="Calque 2" xmlns="http://www.w3.org/2000/svg" viewBox="0 0 96.4 30.09">
  <defs>
    <style>
      .cls-1 {
        fill: #f6f6f6;
      }

      .cls-2 {
        fill: #dadada;
        opacity: .5;
      }
    </style>
  </defs>
  <g id="Nuages_et_Ciel" data-name="Nuages et Ciel">
    <g>
      <path class="cls-1" d="m95.93,25.12s-14.05,11.85-41.87-1.04c0,0-8.64,7.73-20.38.89,0,0-4.96,5.59-15.9,1.19,0,0-8.88,5.31-16.29,2.06s15.12-16.15,15.12-16.15c0,0,9.97-6.26,13.99-.27,0,0,5.15-12.09,11.78-4.92,0,0,7.04-11,15.03-5.17,0,0,10.91-.35,10.64,4.61,0,0,32.62,2.03,27.88,18.8Z"/>
      <path class="cls-2" d="m58.73,5.18c-.77-.83-4.91-6.13-9.63-2.88s3.34,7.56,3.34,7.56c0,0-2.4-2.8.91-2.97s5.38-1.7,5.38-1.7Z"/>
      <path class="cls-2" d="m21.28,15.22c-1.51,1.06-2.67,5.68-.96,5.75s6.79-.45,8.25-2.01,9.83-6.12,12.94-1.67,5.8-.53,5.8-.53c0,0-6.02-9.55-10.65-8.49s-1.44,3.38-2.46,4.59-8.06,3.14-9.07,2.14-3.85.23-3.85.23Z"/>
    </g>
  </g>
</svg>