<?xml version="1.0" encoding="UTF-8"?>
<svg id="Calque_2" data-name="Calque 2" xmlns="http://www.w3.org/2000/svg" viewBox="0 0 69.27 48.48">
  <defs>
    <style>
      .cls-1 {
        fill: #f6f6f6;
      }

      .cls-2 {
        fill: #dadada;
        opacity: .5;
      }
    </style>
  </defs>
  <g id="Nuages_et_Ciel" data-name="Nuages et Ciel">
    <g>
      <path class="cls-1" d="m12.72.02s22.39-1.56,22.11,21.26c0,0,14.31-1.28,12.47,9.35,0,0,9.64-1.56,10.35,6.94,0,0,11.48.57,11.62,6.52s-28.28,4.11-28.28,4.11c0,0-13.25-.43-8.15-6.66,0,0-17.72,6.09-12.61-2.27,0,0-17.43,4.39-14.74-3.69,0,0-6.52-5.1-.28-8.5C5.2,27.09-10.53,9.66,12.72.02Z"/>
      <path class="cls-2" d="m18.24,32.9c0-1.13.57-7.83-5.1-8.66s-2.69,7.81-2.69,7.81c0,0,.14-3.69,2.69-1.56s5.1,2.41,5.1,2.41Z"/>
      <path class="cls-2" d="m12.72,9.8c-1.84-.14-5.67,2.69-4.39,3.83s5.53,3.97,7.65,3.69,11.48,1.52,11.06,6.93,4.82,3.28,4.82,3.28c0,0,1.42-11.2-2.83-13.32s-3.26,1.7-4.82,1.98-8.22-2.69-8.36-4.11-3.12-2.27-3.12-2.27Z"/>
    </g>
  </g>
</svg>