<?xml version="1.0" encoding="UTF-8"?>
<svg id="Calque_2" data-name="Calque 2" xmlns="http://www.w3.org/2000/svg" viewBox="0 0 145.76 54.31">
  <defs>
    <style>
      .cls-1 {
        fill: #f6f6f6;
      }

      .cls-2 {
        fill: #dadada;
        opacity: .5;
      }
    </style>
  </defs>
  <g id="Nuages_et_Ciel" data-name="Nuages et Ciel">
    <g>
      <path class="cls-1" d="m1.33,30.69s15.94-1.39,20.04-.13-5.85-16.43,14.78-10.04c0,0,12.69-15.68,22.07,3.93,0,0,2.71-8.58,9.42-4.86,0,0,2.79-36.17,34.05-10.21,0,0,10.08-5.96,14.35,2.72,0,0,17.58-5.63,11.56,14.54,0,0,5.96-.06,7.17,6.12s1.32-6.26,7.95.7.42,13.3.42,13.3c0,0-16.03,8.37-28.46,2.48-12.43-5.89-48.72,9.53-58.54,3.75s-16.91-7.33-26.51-8.17-9.49,4.46-9.11.8c.48-4.66-23.58-6.7-19.9-7.62-4.45,1.11,16.98-2.73,18.41-3.37S-1.13,31.55,1.33,30.69Z"/>
      <path class="cls-2" d="m40.97,22.9s4.61-6.61,7.48,2.05c0,0,4.69-1.71,4.8,1.45s-1.5.54-1.5.54c0,0-.2-2.28-2.93-.41s-2.52-3.33-2.52-3.33c0,0-.01-2.68-5.33-.29Z"/>
      <path class="cls-2" d="m72.9,37.83s10.64-.29,12.22,1.37,8.43,7.79,12.7,6.64,6.77-8.58,10.4-5.97,7.86,3.94,9.28,2.56-8.46-6.71-11.97-5.52-5.49-1.28-5.49-1.28c0,0-2.16-2.77.14-3.01s5.12-1.28,8.31,1.6-1.13-3.64-1.13-3.64c0,0-1.03-2.5-10.38-1.51s-5.37,4.55-9.36,4.74-15.67,1.61-14.71,4.04Z"/>
      <path class="cls-2" d="m120.49,16.65c3.01.92,4.68,5.75,4.68,5.75,0,0,2.22-2.1.95-4.09s-5.63-1.66-5.63-1.66Z"/>
    </g>
  </g>
</svg>